<svg xmlns="http://www.w3.org/2000/svg" width="494" height="494"><path d="M 98.371 376.642 C 93.992 379.486 87.648 383.908 87.158 389.655 C 86.776 394.142 90.46 397.963 94.359 400.218 C 105.324 406.56 118.992 406.678 131.282 406.122 C 144.948 405.506 167.327 406.513 176.79 394.357 C 184.677 384.225 174.599 373.088 164.92 369.721 C 144.337 362.562 116.774 364.694 98.371 376.642 Z" fill="rgb(33,33,33)"></path><path d="M 136.659 380.541 C 142.729 358.846 146.772 335.808 146.087 313.719 C 146.015 311.405 123.508 309.928 123.58 312.26 C 124.276 334.669 126.215 357.021 129.387 379.214 C 129.716 381.516 136.035 382.775 136.659 380.541 Z" fill="rgb(33,33,33)"></path><g><defs><linearGradient id="idez_V2tfDsg882202592" x1="0.40812669306965554" x2="0.5918733069303445" y1="0" y2="1"><stop offset="0" stop-color="rgb(228, 53, 109)" stop-opacity="1"></stop><stop offset="1" stop-color="rgb(227, 0, 72)" stop-opacity="1"></stop></linearGradient></defs><path d="M 58.99 86.873 C 56.312 103.75 66.03 120.641 63.964 137.603 C 62.196 152.118 52.228 164.044 44.053 176.167 C 35.878 188.291 28.996 203.477 34.166 217.155 C 42.095 238.129 73.301 243.069 80.281 264.376 C 82.655 271.622 81.677 279.579 83.585 286.963 C 87.456 301.942 102.093 311.399 116.29 317.547 C 140.494 328.029 166.954 333.263 193.326 332.787 C 204.24 332.589 216.314 330.839 223.319 322.465 C 230.928 313.369 229.602 299.418 223.973 288.98 C 218.343 278.542 209.242 270.507 201.318 261.684 C 192.888 252.296 185.278 240.045 188.236 227.779 C 190.593 218.003 199.349 210.177 199.644 200.125 C 199.863 192.693 195.269 185.922 189.845 180.835 C 184.421 175.747 178.012 171.755 172.871 166.381 C 161.568 154.565 157.717 137.632 155.048 121.499 C 152.378 105.366 150.195 88.491 141.153 74.866 C 122.414 46.624 64.967 49.193 58.99 86.873 Z" fill="url(#idez_V2tfDsg882202592)"></path></g><path d="M 79.154 110.774 C 76.091 124.26 83.037 138.42 80.464 152.008 C 78.26 163.637 69.575 172.735 62.325 182.089 C 55.075 191.445 48.707 203.341 52.154 214.664 C 57.437 232.025 82.375 237.679 86.876 255.26 C 88.406 261.238 87.192 267.613 88.339 273.677 C 90.666 285.981 101.982 294.399 113.119 300.122 C 132.107 309.878 168.171 322.625 189.494 323.649 C 198.319 324.072 208.164 323.302 214.267 316.914 C 220.897 309.973 220.571 298.637 216.581 289.906 C 212.592 281.176 190.697 267.093 184.768 259.544 C 178.46 251.512 172.968 241.212 176.012 231.465 C 178.438 223.696 185.926 217.842 186.701 209.74 C 187.274 203.748 183.926 198.036 179.817 193.638 C 175.708 189.241 170.745 185.674 166.88 181.06 C 158.381 170.914 156.176 157.034 154.881 143.862 C 153.586 130.691 152.723 116.946 146.148 105.459 C 132.522 81.653 85.992 80.661 79.154 110.774 Z M 88.602 64.278 C 93.468 68.764 96.504 75.18 96.887 81.787 L 96.302 81.811 C 87.041 82.208 78.725 89.06 73.961 97.012 C 72.391 84.774 78.356 71.153 88.602 64.278 Z M 107.502 62.341 C 110.277 66.298 112.777 74.703 112.166 79.496 C 120.049 77.481 130.661 82.366 136.659 87.864 C 131.951 77.644 118.485 64.792 107.502 62.341 Z" fill="rgb(64,21,2)"></path><path d="M 191.071 438.493 C 190.546 447.653 192.1 456.814 195.618 465.288 C 210.231 466.776 227.106 464.32 241.049 459.704 C 244.834 458.45 248.875 456.694 250.651 453.123 C 252.737 448.927 250.713 443.549 247.03 440.65 C 243.347 437.751 238.45 436.892 233.763 436.826 C 229.077 436.761 224.386 437.391 219.711 437.047 C 215.037 436.703 210.191 435.222 207.082 431.714 Z" fill="rgb(255,255,255)"></path><path d="M 120.648 298.511 C 131.668 311.951 146.225 321.948 160.574 331.756 C 167.785 336.686 177.182 341.742 184.683 337.264 C 189.448 334.418 191.561 328.378 191.169 322.842 C 190.776 317.306 188.309 312.149 185.699 307.25 C 175.195 287.553 161.733 269.583 145.781 253.967 C 139.89 248.203 133.182 242.535 125.033 241.294 C 89.385 235.867 110.554 286.202 120.648 298.511 Z" fill="rgb(1,87,155)"></path><path d="M 190.591 327.976 C 192.454 364.635 199.851 399.083 210.22 434.294 C 204.67 437.873 196.603 441.735 190.208 440.089 C 177.391 416.066 168.318 392.182 162.535 365.575 C 159.547 351.828 157.976 336.048 166.674 324.992" fill="rgb(1,87,155)"></path><path d="M 256.133 412.02 C 254.47 421.043 254.871 430.326 257.305 439.172 C 271.618 442.47 288.668 442.137 303.078 439.293 C 306.989 438.522 311.217 437.283 313.424 433.961 C 316.018 430.058 314.679 424.469 311.386 421.134 C 308.094 417.799 303.341 416.335 298.699 415.686 C 294.057 415.037 289.325 415.078 284.73 414.153 C 280.135 413.229 275.512 411.155 272.864 407.288 Z" fill="rgb(255,255,255)"></path><path d="M 192.944 300.681 C 208.428 308.574 225.772 311.895 242.849 315.127 C 251.433 316.751 262.068 317.615 267.144 310.506 C 270.369 305.989 269.883 299.607 267.303 294.693 C 264.724 289.778 260.395 286.044 256.04 282.603 C 238.52 268.77 218.982 257.706 198.108 249.797 C 190.398 246.878 181.982 244.376 174.019 246.507 C 139.185 255.83 178.761 293.452 192.944 300.681 Z" fill="rgb(1,87,155)"></path><path d="M 269.43 302.305 C 266.709 338.911 269.755 374.011 275.655 410.24 C 269.702 413.1 261.217 415.925 255.077 413.495 C 245.355 388.062 239.328 363.233 236.906 336.113 C 235.654 322.1 236.062 306.248 246.07 296.361" fill="rgb(1,87,155)"></path><path d="M 157.43 139.013 C 146.268 155.578 160.997 186.749 162.973 189.763 C 167.795 197.118 179.975 197.649 183.301 205.792 C 184.336 208.327 184.337 211.344 186.072 213.463 C 187.867 215.656 191.098 216.213 193.855 215.566 C 196.614 214.918 199.019 213.281 201.353 211.675 C 200.179 214.035 202.827 216.84 205.463 216.863 C 208.099 216.886 210.394 215.168 212.446 213.513 C 213.965 213.797 215.661 214.298 217.18 214.583 C 218.618 208.954 221.578 203.83 225.735 199.773 C 224.501 198.537 222.965 197.306 221.731 196.07 C 223.205 194.415 222.213 191.099 221.135 189.162 C 220.057 187.226 217.692 186.098 215.508 186.478 C 216.232 185.412 216.965 184.325 217.336 183.092 C 217.708 181.859 217.667 180.434 216.921 179.385 C 215.709 177.68 213.258 177.583 211.166 177.654 L 204.398 177.883 C 200.744 173.717 198.165 145.525 194.474 139.122 C 190.783 132.719 183.911 128.032 176.526 127.773 C 169.139 127.515 161.56 132.883 157.43 139.013 Z" fill="rgb(21, 24, 25)"></path><path d="M 218.046 197.736 C 214.624 201.446 212.586 205.918 212.045 210.939 C 211.945 211.866 213.391 211.925 213.491 211.002 C 213.99 206.381 215.871 202.224 219.025 198.804 C 219.651 198.123 218.678 197.05 218.046 197.736 Z M 210.073 188.822 C 204.621 194.76 201.517 202.121 201.12 210.177 C 201.075 211.108 202.52 211.172 202.567 210.24 C 202.944 202.588 205.869 195.533 211.051 189.889 C 211.677 189.207 210.704 188.135 210.073 188.822 Z M 203.144 178.196 C 196.445 178.792 190.178 180.742 184.354 184.11 C 183.55 184.575 184.22 185.859 185.03 185.39 C 190.62 182.158 196.646 180.215 203.081 179.642 C 203.995 179.561 204.07 178.114 203.144 178.196 Z" fill="rgb(18, 16, 14)"></path><path d="M 225.735 199.773 L 258.633 214.787 L 255.633 221.67 L 217.18 214.583 C 217.18 214.583 217.285 203.408 225.735 199.773 Z" fill="rgb(255,204,188)"></path><path d="M 271.992 223.689 C 276.042 220.294 277.239 214.477 279.51 209.861 C 279.981 208.903 280.457 207.767 279.978 206.812 C 279.586 206.029 278.642 205.649 277.765 205.673 C 276.89 205.697 276.06 206.047 275.255 206.392 C 270.83 208.288 266.397 210.167 261.979 212.079 C 259.017 213.361 254.063 214.805 253.925 218.721 C 253.605 227.775 267.083 227.804 271.992 223.689 Z" fill="rgb(255,204,188)"></path><path d="M 284.335 212.346 C 279.804 211.422 274.842 213.715 271.538 216.654 C 269.795 218.205 272.241 220.871 273.983 219.321 C 275.887 217.628 278.052 216.457 280.578 216.005 C 281.864 215.776 283.896 215.43 284.885 216.662 C 285.806 217.81 285.066 219.892 284.748 221.106 C 284.159 223.352 287.601 224.474 288.193 222.218 C 289.21 218.331 289.202 213.339 284.335 212.346 Z" fill="rgb(255,204,188)"></path><path d="M 285.883 207.797 C 280.356 206.504 274.203 207.922 271.482 213.298 C 270.438 215.36 273.473 217.336 274.524 215.259 C 276.183 211.979 279.314 210.694 282.875 210.957 C 285.93 211.182 292.645 212.874 290.968 217.215 C 290.127 219.392 293.576 220.492 294.413 218.327 C 296.673 212.48 290.755 208.937 285.883 207.797 Z" fill="rgb(255,204,188)"></path><path d="M 296.635 209.866 C 295.284 205.272 291.401 202.319 286.58 202.251 C 281.112 202.174 276.8 205.627 273.686 209.799 C 272.289 211.67 275.342 213.617 276.729 211.759 C 278.707 209.109 281.2 206.768 284.551 206.073 C 288.253 205.305 291.991 206.878 293.108 210.675 C 293.76 212.896 297.294 212.109 296.635 209.866 Z M 271.453 216.627 C 269.228 217.272 270.017 220.806 272.262 220.155 C 275.496 219.217 278.309 222.001 277.198 225.244 C 276.441 227.452 279.889 228.559 280.642 226.357 C 282.61 220.614 277.339 214.921 271.453 216.627 Z" fill="rgb(255,204,188)"></path><path d="M 166.709 185.592 C 163.199 194.292 160.55 204.005 163.301 212.973 C 165.711 220.827 172.145 227.898 171.212 235.99 L 97.869 241.816 C 92.848 236.805 88.761 230.94 85.797 224.495 C 79.464 210.715 78.371 194.769 81.766 179.982 C 86.688 158.55 101.902 138.964 122.74 131.943 C 143.81 124.851 178.559 130.018 175.606 158.999 C 174.649 168.336 170.22 176.892 166.709 185.592 Z" fill="rgb(21, 24, 25)"></path><path d="M 172.792 147.892 C 171.414 137.011 166.272 126.767 158.982 118.572 C 151.693 110.377 142.329 104.171 132.254 99.837 C 128.388 98.175 124.328 96.761 120.122 96.619 C 115.916 96.476 111.507 97.753 108.605 100.802 C 105.703 103.851 104.711 108.838 106.929 112.416 C 108.016 114.168 109.723 115.445 110.979 117.081 C 112.235 118.717 112.993 121.073 111.885 122.813 C 110.665 124.729 107.99 124.863 105.726 125.034 C 103.461 125.206 100.709 126.113 100.404 128.364 C 99.982 131.487 104.608 132.992 105.369 136.051 C 106.237 139.54 101.671 142.471 102.087 146.042 C 102.324 148.077 104.202 149.601 106.182 150.126 C 108.162 150.651 110.253 150.4 112.294 150.235 C 126.03 149.126 140.076 152.181 152.11 158.897 C 154.987 160.503 157.842 162.346 161.092 162.885 C 170.238 164.401 173.742 155.38 172.792 147.892 Z" fill="rgb(27, 32, 33)"></path><path d="M 128.625 112.8 C 127.708 111.942 126.848 111.048 126.119 110.061 C 125.386 109.068 125.06 107.665 125.665 106.589 C 126.786 104.593 129.779 105.164 131.879 106.075 C 142.694 110.76 152.967 117.605 159.334 127.522 C 162.474 132.412 169.196 144.405 169.762 150.193 C 169.983 152.452 170.084 154.949 169.11 157.061 C 168.648 158.085 167.892 158.948 166.937 159.539 C 162.774 162.089 157.207 160.586 153.542 157.926 C 151.183 156.214 148.784 153.932 147.622 151.203 C 144.721 144.388 144.357 136.783 141.543 129.893 C 139.955 126.011 137.833 122.371 135.236 119.077 C 133.365 116.699 130.827 114.858 128.625 112.8 Z M 115.701 120.734 C 112.112 118.222 109.403 114.858 107.674 110.838 C 107.307 109.982 106.027 110.661 106.394 111.514 C 108.22 115.758 111.134 119.303 114.916 121.951 C 115.682 122.486 116.462 121.267 115.701 120.734 Z M 108.263 134.693 C 105.562 134.014 103.338 132.099 102.394 129.455 C 102.085 128.589 100.669 128.9 100.983 129.779 C 102.096 132.893 104.591 135.26 107.818 136.071 C 108.719 136.297 109.167 134.92 108.263 134.693 Z" fill="rgb(18, 16, 14)"></path><path d="M 176.878 152.872 C 176.707 151.957 175.295 152.279 175.467 153.196 C 179.51 174.807 155.765 191.609 162.297 213.396 C 162.563 214.283 163.976 213.968 163.708 213.072 C 157.237 191.489 180.936 174.567 176.878 152.872 Z" fill="rgb(18, 16, 14)"></path><path d="M 313.472 425.868 C 311.514 429.974 307.434 432.06 303.272 433.382 C 298.649 434.85 293.798 435.756 288.983 436.3 C 278.399 437.495 267.676 436.628 257.397 433.86 C 256.784 433.695 256.478 434.635 257.092 434.801 C 267.845 437.695 279.059 438.532 290.115 437.154 C 298.065 436.163 310.37 434.649 314.303 426.403 C 314.573 425.837 313.745 425.296 313.472 425.868 Z M 296.296 416.582 C 291.408 418.63 288.076 423.033 287.333 428.266 C 287.244 428.896 288.231 428.934 288.32 428.309 C 289.015 423.412 292.212 419.361 296.758 417.456 C 297.343 417.211 296.879 416.338 296.296 416.582 Z M 249.114 447.804 C 244.591 456.025 233.453 457.759 225.048 459.315 C 215.43 461.096 205.647 461.687 195.879 461.419 C 195.244 461.401 195.199 462.388 195.835 462.406 C 206.321 462.694 216.837 461.99 227.131 459.919 C 235.31 458.273 245.553 456.324 249.944 448.34 C 250.251 447.784 249.421 447.246 249.114 447.804 Z" fill="rgb(224,224,224)"></path><path d="M 231.032 437.893 C 226.619 441.985 224.703 447.958 225.902 453.853 C 226.029 454.475 226.993 454.256 226.866 453.631 C 225.736 448.081 227.547 442.47 231.699 438.622 C 232.166 438.19 231.499 437.461 231.032 437.893 Z" fill="rgb(224,224,224)"></path><g><defs><linearGradient id="idXuwfQGEQKg943834544" x1="0.42866364234808535" x2="0.5713363576519146" y1="1" y2="0"><stop offset="0" stop-color="rgb(55,71,79)" stop-opacity="1"></stop><stop offset="1" stop-color="rgb(55,26,79)" stop-opacity="1"></stop></linearGradient></defs><path d="M 95.356 257.324 L 103.773 419.789 C 103.913 422.424 106.123 424.469 108.761 424.405 C 111.398 424.34 113.506 422.19 113.517 419.551 L 113.929 268.443 Z" fill="url(#idXuwfQGEQKg943834544)"></path></g><g><defs><linearGradient id="idHhEx0sT89g943834544" x1="0.42866364234808535" x2="0.5713363576519146" y1="1" y2="0"><stop offset="0" stop-color="rgb(55,71,79)" stop-opacity="1"></stop><stop offset="1" stop-color="rgb(55,26,79)" stop-opacity="1"></stop></linearGradient></defs><path d="M 157.312 316.491 L 157.312 482.531 C 157.312 485.224 159.495 487.407 162.188 487.407 L 162.21 487.407 C 164.79 487.407 166.924 485.397 167.077 482.821 L 176.831 318.591 Z" fill="url(#idHhEx0sT89g943834544)"></path></g><g><defs><linearGradient id="idTVzJHkypog943834544" x1="0.42866364234808535" x2="0.5713363576519146" y1="1" y2="0"><stop offset="0" stop-color="rgb(55,71,79)" stop-opacity="1"></stop><stop offset="1" stop-color="rgb(55,26,79)" stop-opacity="1"></stop></linearGradient></defs><path d="M 409.474 290.293 L 409.474 456.333 C 409.474 459.026 411.657 461.209 414.349 461.209 L 414.371 461.209 C 416.951 461.209 419.085 459.199 419.238 456.623 L 428.993 292.394 Z" fill="url(#idTVzJHkypog943834544)"></path></g><g><defs><linearGradient id="idSHiwfW8AOg943834544" x1="0.42866364234808535" x2="0.5713363576519146" y1="1" y2="0"><stop offset="0" stop-color="rgb(55,71,79)" stop-opacity="1"></stop><stop offset="1" stop-color="rgb(55,26,79)" stop-opacity="1"></stop></linearGradient></defs><path d="M 331.496 248.502 L 338.676 392.473 C 338.806 395.068 340.948 397.106 343.546 397.106 L 343.611 397.106 C 346.269 397.106 348.438 394.975 348.485 392.317 L 351.015 250.791 Z" fill="url(#idSHiwfW8AOg943834544)"></path></g><path d="M 90.165 251.642 L 90.165 242.43 L 343.963 231.467 L 436.454 285.835 L 436.454 295.046 L 161.509 329.736 Z" fill="rgb(191,78,57)"></path><path d="M 90.165 242.431 L 343.963 222.256 L 436.454 285.835 L 161.509 320.524 Z" fill="rgb(242,99,72)"></path><path d="M 222.349 244.769 L 248.27 261.689 L 329.851 253.833 L 330.14 249.762 L 223.895 241.518 Z" fill="rgb(33,33,33)"></path><path d="M 223.895 241.518 L 248.559 257.617 L 330.14 249.762 L 304.933 233.764 Z" fill="rgb(38,50,56)"></path><path d="M 204.173 237.925 C 180.803 237.155 157.413 238.619 134.322 242.296 C 130.839 242.851 129.623 247.23 132.341 249.479 C 144.952 259.911 157.322 270.757 169.898 281.251 C 176.412 286.683 184.746 289.437 193.213 288.956 C 212.949 287.838 232.555 285.062 251.825 280.658 C 255.242 279.879 256.177 275.451 253.35 273.38 C 237.89 262.041 221.665 249.746 206.439 238.701 C 205.778 238.222 204.989 237.952 204.173 237.925 Z" fill="rgb(55,71,79)"></path><path d="M 165.476 250.006 C 171.834 259.079 183.712 263.921 194.601 261.879 C 196.197 261.58 197.826 261.117 199.051 260.05 C 200.275 258.984 200.982 257.178 200.346 255.685 C 199.727 254.23 198.114 253.509 196.628 252.97 C 189.067 250.23 181.116 248.718 173.077 248.492 C 171.742 248.454 170.367 248.453 169.059 248.76 C 167.796 249.055 166.74 250.039 165.476 250.006 Z" fill="rgb(55,71,79)" opacity="0.26"></path><path d="M 325.042 136.096 L 314.745 229.156 L 369.491 289.081 L 372.563 165.461 Z" fill="rgb(214, 15, 78)"></path><path d="M 373.233 165.875 L 372.563 165.461 L 369.491 289.081 L 369.635 289.238 L 417.213 280.442 L 420.811 157.079 Z" fill="rgb(214, 15, 78)"></path><path d="M 376.05 222.245 L 375.477 222.064 L 373.979 279.552 L 374.101 279.623 L 414.374 274.759 L 416.322 217.381 Z" fill="rgb(184, 0, 58)"></path><path d="M 420.811 157.079 L 356.351 132.789 L 325.042 136.096 L 373.233 165.875 Z" fill="rgb(214, 15, 78)"></path><path d="M 407.772 139.444 L 396.159 132.074 C 387.393 126.509 348.697 135.379 348.697 135.379 L 368.188 145.408 Z" fill="rgb(255,255,255)"></path><path d="M 368.188 145.408 L 354.893 136.728 C 349.526 133.225 342.327 136.374 341.255 142.692 L 366.996 159.495 L 368.314 145.389 Z" fill="rgb(176,190,197)"></path><path d="M 368.314 145.389 L 366.996 159.495 L 367.175 159.611 L 406.759 153.649 L 407.772 139.444 Z" fill="rgb(144,164,174)"></path><path d="M 376.465 95.077 L 371.911 152.107 C 371.725 154.43 375.341 154.583 375.527 152.264 L 380.08 95.234 C 380.265 92.912 376.65 92.757 376.465 95.077 Z M 419.192 94.457 L 400.95 148.681 C 400.207 150.89 403.678 151.916 404.42 149.71 L 422.661 95.485 C 423.404 93.277 419.934 92.251 419.192 94.457 Z" fill="rgb(255,255,255)"></path><path d="M 419.709 82.448 C 410.578 73.184 395.915 72.245 385.684 80.197 L 386.976 81.644 C 396.405 74.399 409.846 75.271 418.261 83.74 Z M 431.896 71.566 C 416.757 55.602 391.755 54.073 374.792 68 L 376.114 69.481 C 392.276 56.274 416.027 57.696 430.448 72.859 Z" fill="rgb(250,250,250)"></path><path d="M 442.854 61.781 C 422.314 39.782 388.019 37.73 365.007 57.042 L 366.299 58.49 C 388.513 39.89 421.579 41.871 441.406 63.073 Z" fill="rgb(250,250,250)"></path><path d="M 275.836 266.149 C 274.578 266.587 273.365 267.142 272.212 267.807 C 267.446 270.596 265.193 276.236 268.271 281.166 C 269.912 283.796 272.551 285.644 275.277 287.121 C 287.546 293.768 303.621 296.226 317.368 293.762 C 321.629 292.998 326.643 291.551 329.434 287.983 C 335.729 279.934 323.303 272.349 317.27 269.403 C 308.179 264.982 298.067 263.086 287.992 263.913 C 284.108 264.238 279.709 264.774 275.836 266.149 Z" fill="rgb(38,50,56)"></path><path d="M 281.898 267.473 C 280.862 267.841 279.873 268.283 278.96 268.818 C 275.096 271.08 273.269 275.651 275.765 279.649 C 277.095 281.782 279.235 283.28 281.445 284.477 C 291.392 289.866 304.426 291.859 315.571 289.861 C 319.025 289.242 323.091 288.068 325.353 285.176 C 330.458 278.651 320.383 272.5 315.491 270.112 C 308.121 266.528 299.922 264.99 291.753 265.661 C 288.605 265.923 285.038 266.358 281.898 267.473 Z" fill="rgb(55,71,79)"></path><path d="M 370.248 162.092 L 368.526 160.411 L 240.553 166.887 L 223.185 251.54 L 224.906 253.221 L 242.275 168.569 Z" fill="rgb(120,144,156)"></path><path d="M 242.275 168.569 L 224.906 253.221 L 352.879 246.745 L 370.248 162.092 Z" fill="rgb(44,57,64)"></path><path d="M 334.269 206.227 L 332.547 204.546 L 271.659 207.784 L 262.974 245.231 L 264.696 246.913 L 273.381 209.466 Z" fill="rgb(120,144,156)"></path><path d="M 273.381 209.466 L 264.696 246.913 L 325.585 243.675 L 334.269 206.227 Z" fill="rgb(55,71,79)"></path><path d="M 315.233 285.095 C 314.067 285.298 312.876 284.917 312.043 284.076 C 311.21 283.235 310.841 282.04 311.055 280.876 L 314.612 261.491 C 315.59 256.146 313.914 250.659 310.116 246.773 L 295.544 231.879 C 294.202 230.442 294.252 228.195 295.657 226.82 C 297.063 225.444 299.31 225.443 300.718 226.816 L 315.29 241.71 C 320.73 247.278 323.131 255.139 321.731 262.797 L 318.175 282.182 C 317.901 283.673 316.727 284.836 315.233 285.095 Z" fill="rgb(38,50,56)"></path><path d="M 336.281 240.277 L 333.679 238.859 L 327.843 239.169 L 327.01 242.759 L 329.613 244.176 L 330.444 240.587 Z" fill="rgb(55,71,79)"></path><path d="M 330.444 240.587 L 329.613 244.176 L 335.449 243.866 L 336.281 240.277 Z" fill="rgb(44,57,64)"></path><path d="M 384.222 254.462 C 383.433 253.965 382.649 255.183 383.438 255.68 C 394.249 262.49 399.95 275.302 399.357 287.904 C 398.728 301.289 391.395 313.593 381.713 322.507 C 376.578 327.233 370.453 331.516 363.448 332.749 C 356.22 334.02 348.242 331.497 344.614 324.766 C 341.152 318.344 341.67 309.593 341.572 302.517 C 341.465 294.703 342.071 286.971 342.464 279.176 C 343.016 268.244 339.818 252.269 325.851 252.263 C 324.923 252.263 324.854 253.709 325.788 253.709 C 334.483 253.713 339.659 261.904 340.773 269.699 C 341.978 278.131 340.319 286.937 340.148 295.41 C 339.991 303.193 339.803 311.402 341.254 319.084 C 342.335 324.808 345.195 329.737 350.509 332.411 C 362.479 338.434 375.362 330.705 383.924 322.407 C 393.012 313.598 399.809 301.811 400.743 289.007 C 401.722 275.582 395.763 261.733 384.222 254.462 Z" fill="rgb(33,33,33)"></path><path d="M 397.162 252.677 C 394.937 247.41 390.034 243.352 384.166 243.475 C 383.239 243.495 383.17 244.941 384.103 244.921 C 391.454 244.768 396.041 251.304 397.14 257.949 C 398.241 264.602 397.043 271.842 395.993 278.434 C 394.867 285.508 393.175 292.506 390.775 299.26 C 388.614 305.342 385.982 311.635 381.46 316.371 C 376.996 321.047 370.001 324.153 363.562 321.96 C 356.601 319.587 353.868 311.995 352.788 305.386 C 350.521 291.505 352.105 277.415 351.193 263.455 C 350.544 253.518 345.604 240.425 333.31 242.048 C 332.388 242.17 332.715 243.581 333.634 243.459 C 342.68 242.265 347.938 250.995 349.238 258.725 C 350.573 266.658 349.965 275.02 350 283.031 C 350.033 290.395 350.181 297.814 351.286 305.107 C 352.145 310.767 353.914 316.615 358.343 320.53 C 367.24 328.394 379.559 322.131 385.4 313.793 C 393.193 302.666 396.31 287.702 398.019 274.466 C 398.933 267.394 400.029 259.462 397.162 252.677 Z M 422.471 206.153 C 422.167 194 421.352 181.215 417.903 169.499 C 414.802 158.963 408.25 149.052 397.338 145.609 C 396.449 145.329 396.004 146.707 396.892 146.988 C 410.837 151.387 416.334 165.896 418.557 179.076 C 421.019 193.675 421.544 208.64 420.777 223.409 C 420.4 230.567 419.714 237.705 418.72 244.804 C 418.166 248.788 417.62 252.821 416.774 256.756 C 416.316 258.888 415.777 261.209 414.136 262.785 C 411.284 265.524 407.626 263.796 406.738 260.435 C 405.098 254.23 406.577 247.404 405.438 241.102 C 404.736 237.218 402.149 233.741 397.848 234.458 C 396.929 234.611 397.254 236.022 398.172 235.869 C 409.205 234.029 400.667 260.812 408.215 265.117 C 411.367 266.914 414.931 264.738 416.57 261.926 C 419.113 257.566 419.269 251.107 419.972 246.238 C 421.889 232.976 422.805 219.553 422.471 206.153 Z" fill="rgb(33,33,33)"></path><path d="M 409.192 263.752 C 407.823 249.676 399.671 234.822 384.176 233.505 C 383.247 233.426 383.186 234.872 384.113 234.951 C 400.838 236.372 407.77 253.88 408.023 268.532 C 408.25 281.718 404.116 294.686 397.153 305.812 C 382.234 329.649 356.021 342.682 328.514 345.16 C 314.192 346.45 299.157 345.347 285.311 341.372 C 271.574 337.428 256.029 326.332 259.525 309.948 C 260.654 304.653 264.014 298.643 261.891 293.171 C 260.229 288.889 255.891 287.271 251.603 287.182 C 245.284 287.052 238.64 289.208 232.722 291.192 C 229.768 292.18 226.858 293.297 224.001 294.54 C 220.182 296.205 216.425 298.835 212.386 299.884 C 210.068 300.485 206.455 300.61 204.832 298.379 C 202.724 295.48 204.494 292.422 206.306 289.974 C 208.771 286.644 211.696 283.627 214.91 281.013 C 219.493 277.286 228.056 274.373 228.911 267.61 C 229.636 261.876 223.356 258.943 219.027 257.037 C 211.848 253.877 204.038 252.633 196.229 253.135 C 195.309 253.194 195.236 254.64 196.165 254.581 C 204.457 254.047 212.712 255.511 220.194 259.177 C 224.444 261.261 229.735 264.599 226.492 270.167 C 224.407 273.745 220.063 275.468 216.808 277.764 C 211.676 281.383 205.348 286.787 202.909 292.777 C 201.202 296.968 203.676 300.768 208.006 301.601 C 214.059 302.764 220.593 297.527 225.879 295.305 C 233.228 292.215 241.573 289.26 249.594 288.703 C 253.45 288.435 257.985 288.998 260.09 292.723 C 262.425 296.853 260.26 301.976 259.055 306.118 C 257.371 311.901 257.069 317.367 259.423 323.036 C 264.817 336.023 278.521 341.67 291.397 344.341 C 305.225 347.209 319.557 347.914 333.569 346.048 C 360.659 342.44 385.879 328.273 399.783 304.247 C 406.838 292.061 410.563 277.845 409.192 263.752 Z" fill="rgb(33,33,33)"></path><path d="M 205.73 144.782 C 200.156 149.239 191.435 147.599 186.251 141.118 C 181.067 134.637 181.384 125.768 186.958 121.31 C 192.533 116.851 201.254 118.492 206.438 124.973 C 211.622 131.455 211.305 140.324 205.73 144.782 Z" fill="rgb(18, 16, 14)"></path><path d="M 188.741 139.539 C 185.365 135.317 185.516 129.584 189.079 126.735 C 192.642 123.885 198.267 124.998 201.644 129.22 C 205.021 133.443 204.87 139.175 201.307 142.025 C 197.744 144.874 192.118 143.761 188.741 139.539 Z" fill="rgb(0,0,0)"></path><path d="M 154.297 99.641 L 154.445 99.76 L 154.552 104.978 C 154.552 104.978 150.637 102.483 150.491 104.397 C 150.491 104.397 149.172 99.936 154.297 99.641 Z" fill="rgb(18, 16, 14)"></path><path d="M 156.877 123.753 C 154.486 112.192 153.854 100.336 154.999 88.586 C 151.942 82.97 152.851 74.893 157.572 70.582 C 162.294 66.27 170.007 65.687 175.323 69.241 C 178.844 63.953 183.67 59.211 189.348 56.362 C 192.556 54.753 196.076 53.606 199.664 53.668 C 203.252 53.73 206.919 55.123 209.209 57.888 C 211.498 60.651 212.128 64.86 210.255 67.922 C 214.01 64.658 219.93 64.193 224.148 66.832 C 228.364 69.471 230.535 75 229.24 79.803 C 228.318 83.222 225.87 86.072 223 88.149 C 220.131 90.226 216.836 91.622 213.574 93 C 215.967 91.305 219.676 92.517 221.071 95.097 C 222.466 97.677 221.766 101.05 219.875 103.291 C 217.984 105.533 215.113 106.76 212.222 107.251 C 209.332 107.742 206.374 107.572 203.444 107.461 C 200.514 107.349 197.538 107.303 194.696 108.03 C 186.227 110.199 181.995 121.833 179.029 130.056 C 172.537 126.823 164.073 124.648 156.877 123.753 Z" fill="rgb(93,64,55)"></path><path d="M 164.297 116.543 C 158.206 121.331 152.58 126.684 147.495 132.529 C 146.791 131.217 144.219 131.775 143.379 133.004 C 142.539 134.233 142.664 135.864 142.924 137.33 C 144.23 144.677 148.182 151.526 153.889 156.333 C 156.286 158.353 159.68 160.065 162.433 158.567 C 164.272 157.567 165.193 155.362 165.225 153.268 C 165.259 151.176 164.555 149.149 163.85 147.178 C 167.067 140.013 171.757 133.642 178.474 129.572 Z" fill="rgb(255,204,188)"></path><path d="M 178.477 129.572 L 164.298 116.543 C 162.701 117.8 161.136 119.095 159.604 120.429 C 160.441 128.223 162.237 136.523 165.349 144.122 C 168.475 138.217 172.733 133.052 178.477 129.572 Z" fill="rgb(255,171,145)"></path><path d="M 205.823 101.835 C 206.455 108.747 206.21 120.239 205.708 125.899 C 205.204 131.559 202.688 137.328 197.894 140.38 C 191.393 144.519 182.427 142.501 176.408 137.69 C 170.39 132.878 164.656 123.838 161.08 117.011 C 158.466 117.757 153.062 115.628 153.05 108.885 C 153.045 106.154 155.189 103.448 157.891 103.054 C 161.87 102.475 162.538 106.846 162.739 109.103 C 164.102 107.955 165.668 105.991 166.998 103.864 C 168.47 101.509 168.965 98.684 168.518 95.944 C 168.314 94.684 168.185 93.414 168.132 92.139 C 168.058 90.195 169.35 88.463 171.235 87.98 C 181.149 85.471 190.085 85.659 200.402 87.976 C 203.779 91.766 205.361 96.779 205.823 101.835 Z" fill="rgb(255,204,188)"></path><path d="M 156.454 105.506 C 155.55 105.328 155.096 106.704 156.008 106.884 C 158.072 107.289 159.668 108.825 160.082 110.899 C 160.263 111.812 161.675 111.49 161.493 110.575 C 160.991 108.056 158.984 106.002 156.454 105.506 Z" fill="rgb(255,171,145)"></path><path d="M 182.835 102.385 C 182.922 101.458 181.476 101.396 181.389 102.322 C 181.164 104.73 181.07 107.148 181.108 109.566 C 181.123 110.494 182.57 110.563 182.555 109.629 C 182.516 107.211 182.61 104.793 182.835 102.385 Z M 202.517 103.532 C 202.604 102.604 201.158 102.543 201.071 103.468 C 200.846 105.876 200.752 108.294 200.79 110.712 C 200.805 111.64 202.251 111.709 202.237 110.776 C 202.199 108.358 202.292 105.939 202.517 103.532 Z" fill="rgb(38,50,56)"></path><path d="M 196.423 108.629 C 195.845 107.897 194.781 108.879 195.356 109.607 C 196.787 111.418 198.171 113.4 198.751 115.671 C 199.334 117.952 199.615 122.629 196.435 123.287 C 195.523 123.475 195.845 124.887 196.759 124.697 C 199.577 124.114 200.546 121.05 200.573 118.461 C 200.61 114.707 198.679 111.483 196.423 108.629 Z" fill="rgb(255,112,67)"></path><path d="M 188.702 130.28 C 184.435 127.771 180.728 124.415 177.809 120.417 C 177.259 119.667 176.196 120.651 176.742 121.396 C 179.74 125.49 183.543 128.927 187.918 131.497 C 188.72 131.969 189.505 130.754 188.702 130.28 Z" fill="rgb(38,50,56)"></path><path d="M 186.99 92.191 C 183.65 88.745 178.703 88.475 174.944 91.414 C 173.474 92.563 175.439 94.69 176.9 93.548 C 179.397 91.595 182.67 91.893 184.856 94.147 C 186.151 95.485 188.289 93.532 186.99 92.191 Z M 203.473 94.547 C 201.544 95.493 199.46 95.169 197.794 93.859 C 196.326 92.706 194.771 95.151 196.225 96.293 C 198.695 98.234 202.03 98.479 204.823 97.108 C 206.497 96.287 205.148 93.725 203.473 94.547 Z" fill="rgb(93,64,55)"></path><path d="M 149.243 141.41 C 142.942 133.532 143.327 122.753 150.103 117.334 C 156.879 111.915 167.479 113.909 173.779 121.787 C 180.08 129.665 179.694 140.444 172.919 145.863 C 166.143 151.281 155.543 149.288 149.243 141.41 Z" fill="rgb(18, 16, 14)"></path><path d="M 170.494 144.48 C 164.477 149.292 154.978 147.413 149.275 140.283 C 143.572 133.153 143.827 123.472 149.844 118.66 C 155.861 113.848 165.362 115.727 171.063 122.857 C 176.766 129.987 176.511 139.668 170.494 144.48 Z" fill="rgb(207, 37, 91)"></path><path d="M 164.547 141.638 C 160.217 145.101 153.379 143.748 149.275 138.616 C 145.171 133.485 145.355 126.516 149.685 123.053 C 154.015 119.59 160.853 120.943 164.957 126.075 C 169.061 131.206 168.878 138.175 164.547 141.638 Z" fill="rgb(228, 53, 109)"></path><path d="M 149.24 127.765 C 147.563 124.701 145.053 117.06 144.229 113.666 C 143.404 110.273 143.54 106.5 145.363 103.522 C 147.188 100.543 150.953 98.636 154.298 99.641 C 152.604 99.706 151.175 101.226 150.72 102.86 C 150.265 104.494 150.549 106.237 150.938 107.888 C 152.17 113.099 154.412 118.018 157.538 122.367 C 154.501 122.406 150.64 125.459 149.24 127.765 Z" fill="rgb(228, 53, 109)"></path><path d="M 203.135 247.726 C 203.197 247.557 203.266 247.392 203.322 247.219 L 203.358 247.115 C 201.673 242.815 198.393 239.14 194.386 236.759 C 193.921 236.483 193.444 236.226 192.96 235.983 C 189.879 234.448 186.449 233.683 183.034 233.957 C 174.665 234.642 167.1 241.118 165.091 249.264 C 165.05 249.414 165.016 249.571 164.98 249.729 C 177.469 253.207 190.923 253.317 203.135 247.726 Z" fill="rgb(214, 15, 78)"></path><path d="M 164.98 249.73 L 164.966 249.788 C 165.08 249.862 165.195 249.929 165.31 249.997 C 171.204 253.687 177.766 256.82 184.686 257.248 C 188.612 257.498 192.648 257.17 196.263 255.623 C 199.498 254.234 201.635 251.5 202.935 248.27 C 203.009 248.091 203.07 247.907 203.136 247.727 C 190.923 253.317 177.469 253.207 164.98 249.73 Z" fill="rgb(184, 0, 58)"></path><path d="M 186.774 252.556 C 186.756 252.531 186.738 252.506 186.718 252.489 C 181.379 245.888 171.85 244.891 165.31 249.997 C 165.196 249.929 165.081 249.862 164.966 249.788 C 165.006 249.611 165.045 249.433 165.091 249.265 C 172.012 244.075 181.797 245.283 187.248 252 C 187.292 252.051 187.329 252.099 187.373 252.149 C 187.665 252.512 187.067 252.918 186.774 252.556 Z" fill="rgb(184, 0, 58)"></path><path d="M 203.323 247.22 C 203.207 247.577 203.077 247.924 202.934 248.27 C 201.811 248.88 200.574 249.313 199.308 249.684 C 195.307 250.856 191.246 251.83 187.186 252.752 C 186.958 252.808 186.782 252.659 186.718 252.489 C 186.662 252.32 186.711 252.123 186.938 252.074 C 187.042 252.053 187.145 252.029 187.248 252.001 C 190.615 251.231 193.969 250.399 197.305 249.492 C 199.339 248.942 201.552 248.382 203.323 247.22 Z" fill="rgb(184, 0, 58)"></path><path d="M 197.642 249.463 C 196.218 243.477 191.06 239.203 184.755 238.726 C 184.281 238.69 184.143 239.401 184.623 239.437 C 190.699 239.896 195.571 243.945 196.94 249.705 C 197.048 250.16 197.749 249.914 197.642 249.463 Z" fill="rgb(184, 0, 58)"></path><path d="M 194.386 236.76 C 187.648 236.182 181.418 240.229 179.3 246.795 C 179.158 247.236 178.446 247.107 178.588 246.666 C 180.658 240.232 186.433 236.049 192.961 235.983 C 193.445 236.227 193.921 236.484 194.386 236.76 Z" fill="rgb(184, 0, 58)"></path><path d="M 115.139 128.59 C 101.78 143.461 89.865 159.568 79.554 176.693 C 77.695 179.78 75.871 182.941 74.88 186.406 C 73.888 189.871 73.793 193.716 75.332 196.975 C 79.088 204.927 91.077 207.142 93.242 215.667 C 93.915 218.321 93.497 221.309 94.922 223.649 C 96.395 226.068 99.518 227.068 102.339 226.809 C 105.16 226.55 107.769 225.262 110.304 223.995 C 108.813 226.17 111.048 229.316 113.656 229.703 C 116.263 230.091 118.773 228.708 121.035 227.354 C 122.5 227.847 124.11 228.577 125.576 229.07 C 127.78 223.694 131.421 219.03 136.102 215.589 C 135.052 214.193 133.7 212.761 132.65 211.366 C 134.339 209.931 133.816 206.511 133.017 204.443 C 132.218 202.375 130.033 200.93 127.817 201.005 C 128.68 200.049 129.557 199.074 130.096 197.905 C 130.634 196.736 130.792 195.32 130.199 194.177 C 129.234 192.32 126.82 191.884 124.739 191.665 L 118.005 190.954 C 122.999 182.986 148.895 162.395 151.534 155.49 C 154.171 148.586 154.579 140.688 151.81 133.835 C 149.042 126.983 142.888 121.389 135.608 120.108 C 128.328 118.827 120.078 123.092 115.139 128.59 Z" fill="rgb(27, 32, 33)"></path><path d="M 128.767 212.505 C 124.864 215.704 122.225 219.851 120.993 224.747 C 120.766 225.651 122.19 225.91 122.417 225.01 C 123.551 220.503 125.991 216.646 129.588 213.696 C 130.304 213.11 129.488 211.913 128.767 212.505 Z M 122.107 202.572 C 115.884 207.697 111.791 214.557 110.281 222.481 C 110.107 223.396 111.529 223.659 111.704 222.744 C 113.138 215.218 117.013 208.636 122.928 203.764 C 123.642 203.175 122.827 201.978 122.107 202.572 Z M 116.718 191.087 C 110.002 190.75 103.525 191.811 97.29 194.34 C 96.43 194.688 96.915 196.053 97.781 195.701 C 103.766 193.275 110.002 192.187 116.456 192.511 C 117.372 192.557 117.647 191.135 116.718 191.087 Z" fill="rgb(18, 16, 14)"></path><path d="M 136.101 215.588 L 166.6 235.017 L 162.674 241.417 L 125.575 229.068 C 125.575 229.069 127.228 218.017 136.101 215.588 Z" fill="rgb(255,204,188)"></path><path d="M 178.595 245.686 C 183.075 242.886 185.067 237.291 187.957 233.034 C 188.557 232.15 189.185 231.091 188.843 230.079 C 188.564 229.249 187.68 228.742 186.81 228.643 C 185.94 228.545 185.069 228.777 184.223 229.007 C 179.578 230.27 174.928 231.517 170.287 232.798 C 167.177 233.657 162.07 234.4 161.39 238.26 C 159.819 247.183 173.163 249.081 178.595 245.686 Z" fill="rgb(255,204,188)"></path><path d="M 192.39 236.163 C 188.031 234.619 182.8 236.202 179.119 238.655 C 177.178 239.95 179.232 242.929 181.172 241.636 C 183.292 240.223 185.598 239.363 188.163 239.266 C 189.467 239.217 191.528 239.156 192.337 240.513 C 193.09 241.776 192.068 243.737 191.585 244.895 C 190.69 247.039 193.944 248.625 194.843 246.474 C 196.39 242.766 197.073 237.821 192.39 236.163 Z" fill="rgb(255,204,188)"></path><path d="M 194.554 231.872 C 189.26 229.825 182.969 230.376 179.529 235.324 C 178.21 237.222 180.942 239.599 182.271 237.687 C 184.369 234.67 187.647 233.83 191.138 234.585 C 194.133 235.232 200.548 237.838 198.286 241.905 C 197.15 243.944 200.415 245.512 201.543 243.485 C 204.591 238.006 199.222 233.677 194.554 231.872 Z" fill="rgb(255,204,188)"></path><path d="M 204.916 235.411 C 204.215 230.673 200.778 227.211 196.013 226.476 C 190.608 225.642 185.86 228.462 182.197 232.163 C 180.555 233.823 183.308 236.175 184.939 234.527 C 187.265 232.176 190.059 230.203 193.474 229.98 C 197.246 229.733 200.731 231.809 201.311 235.723 C 201.649 238.015 205.259 237.724 204.916 235.411 Z M 179.039 238.617 C 176.746 238.947 177.038 242.557 179.353 242.223 C 182.685 241.743 185.085 244.89 183.535 247.947 C 182.48 250.028 185.739 251.602 186.792 249.526 C 189.537 244.112 185.107 237.742 179.039 238.617 Z" fill="rgb(255,204,188)"></path><path d="M 120.423 123.607 C 102.814 140.127 87.927 159.533 76.983 181.055 C 76.56 181.887 77.864 182.516 78.286 181.686 C 89.177 160.269 103.999 140.99 121.52 124.551 C 122.2 123.914 121.096 122.975 120.423 123.607 Z M 151.187 130.761 C 150.889 129.878 149.527 130.368 149.825 131.253 C 151.729 136.91 152.864 142.961 151.896 148.923 C 150.859 155.312 147.203 159.903 142.799 164.383 C 133.964 173.371 125.073 182.305 116.211 191.265 C 115.554 191.929 116.655 192.869 117.307 192.21 C 127.244 182.164 137.97 172.485 147.215 161.8 C 154.935 152.874 154.791 141.471 151.187 130.761 Z" fill="rgb(18, 16, 14)"></path></svg>