<svg xmlns="http://www.w3.org/2000/svg" width="203" height="177"><path d="M 100.087 176.938 C 99.455 176.952 98.821 176.959 98.184 176.959 C 83.053 176.959 64.022 168.867 46.752 157.664 C 45.323 156.737 43.907 155.789 42.503 154.819 L 43.734 147.318 L 80.997 142.364 L 99.699 156.684 Z" fill="rgb(47,46,65)"></path><path d="M 101.881 43.008 L 96.571 43.008 C 96.229 43.008 95.951 43.286 95.951 43.629 L 95.951 48.949 C 95.951 49.113 96.017 49.271 96.133 49.387 C 96.249 49.503 96.407 49.568 96.571 49.567 L 101.881 49.567 C 102.223 49.567 102.5 49.291 102.501 48.949 L 102.501 43.629 C 102.5 43.286 102.223 43.009 101.881 43.008 Z" fill="rgb(255,255,255)"></path><path d="M 101.881 52.073 L 96.571 52.073 C 96.229 52.073 95.951 52.351 95.951 52.694 L 95.951 58.013 C 95.951 58.178 96.017 58.336 96.133 58.452 C 96.249 58.568 96.407 58.633 96.571 58.632 L 101.881 58.632 C 102.223 58.632 102.5 58.356 102.501 58.013 L 102.501 52.694 C 102.5 52.351 102.223 52.074 101.881 52.073 Z M 101.881 61.138 L 96.571 61.138 C 96.229 61.138 95.951 61.416 95.951 61.759 L 95.951 67.076 C 95.951 67.241 96.016 67.399 96.132 67.516 C 96.249 67.632 96.407 67.697 96.571 67.697 L 101.881 67.697 C 102.224 67.697 102.501 67.419 102.501 67.076 L 102.501 61.759 C 102.5 61.416 102.223 61.139 101.881 61.138 Z M 102.492 70.714 C 102.437 70.419 102.181 70.204 101.881 70.203 L 96.571 70.203 C 96.229 70.203 95.951 70.481 95.951 70.824 L 95.951 76.141 C 95.951 76.306 96.016 76.464 96.132 76.581 C 96.249 76.697 96.407 76.762 96.571 76.762 L 101.881 76.762 C 102.224 76.762 102.501 76.484 102.501 76.141 L 102.501 70.824 C 102.502 70.787 102.499 70.75 102.492 70.714 Z M 102.122 79.316 C 102.046 79.284 101.964 79.268 101.881 79.268 L 96.571 79.268 C 96.407 79.267 96.249 79.333 96.132 79.449 C 96.016 79.566 95.951 79.724 95.951 79.889 L 95.951 85.206 C 95.95 85.371 96.015 85.529 96.132 85.646 C 96.248 85.763 96.407 85.828 96.571 85.827 L 101.881 85.827 C 102.224 85.827 102.501 85.549 102.501 85.206 L 102.501 79.889 C 102.501 79.639 102.352 79.414 102.122 79.316 Z M 113.035 43.008 L 107.725 43.008 C 107.383 43.008 107.105 43.286 107.105 43.629 L 107.105 48.949 C 107.105 49.113 107.171 49.271 107.287 49.387 C 107.404 49.503 107.561 49.568 107.725 49.567 L 113.035 49.567 C 113.377 49.567 113.654 49.291 113.656 48.949 L 113.656 43.629 C 113.655 43.286 113.378 43.009 113.035 43.008 Z" fill="rgb(230,230,230)"></path><path d="M 113.035 52.073 L 107.725 52.073 C 107.383 52.073 107.105 52.351 107.105 52.694 L 107.105 58.013 C 107.105 58.178 107.171 58.336 107.287 58.452 C 107.404 58.568 107.561 58.633 107.725 58.632 L 113.035 58.632 C 113.377 58.632 113.654 58.356 113.656 58.013 L 113.656 52.694 C 113.655 52.351 113.378 52.074 113.035 52.073 Z M 113.035 61.138 L 107.725 61.138 C 107.383 61.138 107.105 61.416 107.105 61.759 L 107.105 67.076 C 107.105 67.241 107.17 67.399 107.287 67.516 C 107.403 67.632 107.561 67.697 107.725 67.697 L 113.035 67.697 C 113.378 67.697 113.656 67.419 113.656 67.076 L 113.656 61.759 C 113.655 61.416 113.378 61.139 113.035 61.138 Z M 113.035 70.203 L 107.725 70.203 C 107.459 70.203 107.222 70.374 107.139 70.628 C 107.117 70.691 107.105 70.757 107.105 70.824 L 107.105 76.141 C 107.105 76.306 107.17 76.464 107.287 76.581 C 107.403 76.697 107.561 76.762 107.725 76.762 L 113.035 76.762 C 113.378 76.762 113.656 76.484 113.656 76.141 L 113.656 70.824 C 113.655 70.481 113.378 70.204 113.035 70.203 Z" fill="rgb(228, 34, 96)"></path><path d="M 113.035 79.268 L 107.725 79.268 C 107.561 79.267 107.403 79.333 107.287 79.449 C 107.17 79.566 107.105 79.724 107.105 79.889 L 107.105 85.206 C 107.105 85.371 107.17 85.529 107.287 85.646 C 107.403 85.762 107.561 85.827 107.725 85.827 L 113.035 85.827 C 113.378 85.827 113.656 85.549 113.656 85.206 L 113.656 79.889 C 113.656 79.546 113.378 79.268 113.035 79.268 Z" fill="rgb(230,230,230)"></path><path d="M 124.19 43.008 L 118.88 43.008 C 118.537 43.008 118.26 43.286 118.26 43.629 L 118.26 48.949 C 118.26 49.113 118.325 49.271 118.442 49.387 C 118.558 49.503 118.716 49.568 118.88 49.567 L 124.19 49.567 C 124.531 49.567 124.809 49.291 124.81 48.949 L 124.81 43.629 C 124.809 43.286 124.532 43.009 124.19 43.008 Z M 124.19 52.073 L 118.88 52.073 C 118.537 52.073 118.26 52.351 118.26 52.694 L 118.26 58.013 C 118.26 58.178 118.325 58.336 118.442 58.452 C 118.558 58.568 118.716 58.633 118.88 58.632 L 124.19 58.632 C 124.531 58.632 124.809 58.356 124.81 58.013 L 124.81 52.694 C 124.809 52.351 124.532 52.074 124.19 52.073 Z" fill="rgb(228, 34, 96)"></path><path d="M 124.19 61.138 L 118.88 61.138 C 118.537 61.138 118.26 61.416 118.26 61.759 L 118.26 67.076 C 118.259 67.241 118.324 67.399 118.441 67.516 C 118.557 67.632 118.715 67.697 118.88 67.697 L 124.19 67.697 C 124.532 67.697 124.81 67.419 124.81 67.076 L 124.81 61.759 C 124.809 61.416 124.532 61.139 124.19 61.138 Z" fill="rgb(230,230,230)"></path><path d="M 124.19 70.203 L 118.88 70.203 C 118.537 70.203 118.26 70.481 118.26 70.824 L 118.26 76.141 C 118.259 76.306 118.324 76.464 118.441 76.581 C 118.557 76.697 118.715 76.762 118.88 76.762 L 124.19 76.762 C 124.532 76.762 124.81 76.484 124.81 76.141 L 124.81 70.824 C 124.809 70.481 124.532 70.204 124.19 70.203 Z M 124.19 79.268 L 118.88 79.268 C 118.715 79.267 118.557 79.333 118.441 79.449 C 118.324 79.566 118.259 79.724 118.26 79.889 L 118.26 85.206 C 118.259 85.371 118.324 85.529 118.441 85.646 C 118.557 85.762 118.715 85.827 118.88 85.827 L 124.19 85.827 C 124.532 85.827 124.81 85.549 124.81 85.206 L 124.81 79.889 C 124.81 79.546 124.532 79.268 124.19 79.268 Z M 135.344 43.008 L 130.034 43.008 C 129.692 43.008 129.414 43.286 129.414 43.629 L 129.414 48.949 C 129.414 49.113 129.479 49.271 129.596 49.387 C 129.712 49.503 129.87 49.568 130.034 49.567 L 135.344 49.567 C 135.686 49.567 135.963 49.291 135.964 48.949 L 135.964 43.629 C 135.963 43.286 135.686 43.009 135.344 43.008 Z" fill="rgb(228, 34, 96)"></path><path d="M 135.344 52.073 L 130.034 52.073 C 129.692 52.073 129.414 52.351 129.414 52.694 L 129.414 58.013 C 129.414 58.178 129.479 58.336 129.596 58.452 C 129.712 58.568 129.87 58.633 130.034 58.632 L 135.344 58.632 C 135.686 58.632 135.963 58.356 135.964 58.013 L 135.964 52.694 C 135.963 52.351 135.686 52.074 135.344 52.073 Z M 135.344 61.138 L 130.034 61.138 C 129.692 61.138 129.414 61.416 129.414 61.759 L 129.414 67.076 C 129.413 67.241 129.479 67.399 129.595 67.516 C 129.711 67.632 129.869 67.697 130.034 67.697 L 135.344 67.697 C 135.686 67.697 135.964 67.419 135.964 67.076 L 135.964 61.759 C 135.963 61.416 135.686 61.139 135.344 61.138 Z" fill="rgb(255,255,255)"></path><path d="M 135.344 70.203 L 130.034 70.203 C 129.692 70.203 129.414 70.481 129.414 70.824 L 129.414 76.141 C 129.413 76.306 129.479 76.464 129.595 76.581 C 129.711 76.697 129.869 76.762 130.034 76.762 L 135.344 76.762 C 135.686 76.762 135.964 76.484 135.964 76.141 L 135.964 70.824 C 135.963 70.481 135.686 70.204 135.344 70.203 Z" fill="rgb(230,230,230)"></path><path d="M 135.344 79.268 L 130.034 79.268 C 129.869 79.267 129.711 79.333 129.595 79.449 C 129.479 79.566 129.413 79.724 129.414 79.889 L 129.414 85.206 C 129.413 85.371 129.479 85.529 129.595 85.646 C 129.711 85.762 129.869 85.827 130.034 85.827 L 135.344 85.827 C 135.686 85.827 135.964 85.549 135.964 85.206 L 135.964 79.889 C 135.964 79.546 135.686 79.268 135.344 79.268 Z" fill="rgb(228, 34, 96)"></path><path d="M 146.498 43.008 L 141.186 43.008 C 140.844 43.009 140.568 43.287 140.568 43.629 L 140.568 48.949 C 140.568 49.29 140.845 49.567 141.186 49.567 L 146.498 49.567 C 146.84 49.567 147.117 49.291 147.118 48.949 L 147.118 43.629 C 147.117 43.286 146.84 43.009 146.498 43.008 Z M 146.498 52.073 L 141.186 52.073 C 140.844 52.074 140.568 52.352 140.568 52.694 L 140.568 58.013 C 140.568 58.355 140.845 58.632 141.186 58.632 L 146.498 58.632 C 146.84 58.632 147.117 58.356 147.118 58.013 L 147.118 52.694 C 147.117 52.351 146.84 52.074 146.498 52.073 Z M 146.498 61.138 L 141.186 61.138 C 140.844 61.139 140.568 61.417 140.568 61.759 L 140.568 67.076 C 140.568 67.241 140.633 67.398 140.748 67.515 C 140.864 67.631 141.022 67.697 141.186 67.697 L 146.498 67.697 C 146.841 67.697 147.118 67.419 147.118 67.076 L 147.118 61.759 C 147.117 61.416 146.84 61.139 146.498 61.138 Z" fill="rgb(255,255,255)"></path><path d="M 146.498 70.203 L 141.186 70.203 C 140.844 70.204 140.568 70.482 140.568 70.824 L 140.568 76.141 C 140.568 76.305 140.633 76.463 140.748 76.58 C 140.864 76.696 141.022 76.762 141.186 76.762 L 146.498 76.762 C 146.841 76.762 147.118 76.484 147.118 76.141 L 147.118 70.824 C 147.117 70.481 146.84 70.204 146.498 70.203 Z" fill="rgb(228, 34, 96)"></path><path d="M 146.498 79.268 L 141.186 79.268 C 141.022 79.268 140.864 79.334 140.748 79.45 C 140.633 79.567 140.568 79.724 140.568 79.889 L 140.568 85.206 C 140.568 85.37 140.633 85.528 140.748 85.645 C 140.864 85.761 141.022 85.827 141.186 85.827 L 146.498 85.827 C 146.841 85.827 147.118 85.549 147.118 85.206 L 147.118 79.889 C 147.118 79.546 146.841 79.268 146.498 79.268 Z" fill="rgb(230,230,230)"></path><path d="M 157.653 43.008 L 152.34 43.008 C 151.999 43.009 151.722 43.287 151.722 43.629 L 151.722 48.949 C 151.722 49.29 151.999 49.567 152.34 49.567 L 157.653 49.567 C 157.994 49.567 158.271 49.291 158.273 48.949 L 158.273 43.629 C 158.272 43.286 157.995 43.009 157.653 43.008 Z M 157.653 52.073 L 152.34 52.073 C 151.999 52.074 151.722 52.352 151.722 52.694 L 151.722 58.013 C 151.722 58.355 151.999 58.632 152.34 58.632 L 157.653 58.632 C 157.994 58.632 158.271 58.356 158.273 58.013 L 158.273 52.694 C 158.272 52.351 157.995 52.074 157.653 52.073 Z" fill="rgb(255,255,255)"></path><path d="M 157.653 61.138 L 152.34 61.138 C 151.999 61.139 151.722 61.417 151.722 61.759 L 151.722 67.076 C 151.722 67.241 151.787 67.398 151.903 67.515 C 152.019 67.631 152.176 67.697 152.34 67.697 L 157.653 67.697 C 157.995 67.697 158.273 67.419 158.273 67.076 L 158.273 61.759 C 158.272 61.416 157.995 61.139 157.653 61.138 Z" fill="rgb(228, 34, 96)"></path><path d="M 157.653 70.203 L 152.34 70.203 C 151.999 70.204 151.722 70.482 151.722 70.824 L 151.722 76.141 C 151.722 76.305 151.787 76.463 151.903 76.58 C 152.019 76.696 152.176 76.762 152.34 76.762 L 157.653 76.762 C 157.995 76.762 158.273 76.484 158.273 76.141 L 158.273 70.824 C 158.272 70.481 157.995 70.204 157.653 70.203 Z" fill="rgb(230,230,230)"></path><path d="M 157.653 79.268 L 152.34 79.268 C 152.176 79.268 152.019 79.334 151.903 79.45 C 151.787 79.567 151.722 79.724 151.722 79.889 L 151.722 85.206 C 151.722 85.37 151.787 85.528 151.903 85.645 C 152.019 85.761 152.176 85.827 152.34 85.827 L 157.653 85.827 C 157.995 85.827 158.273 85.549 158.273 85.206 L 158.273 79.889 C 158.273 79.546 157.995 79.268 157.653 79.268 Z" fill="rgb(255,255,255)"></path><path d="M 168.807 43.008 L 163.494 43.008 C 163.153 43.009 162.876 43.287 162.877 43.629 L 162.877 48.949 C 162.877 49.29 163.153 49.567 163.494 49.567 L 168.807 49.567 C 169.148 49.567 169.426 49.291 169.427 48.949 L 169.427 43.629 C 169.426 43.286 169.149 43.009 168.807 43.008 Z M 168.807 52.073 L 163.494 52.073 C 163.153 52.074 162.876 52.352 162.877 52.694 L 162.877 58.013 C 162.877 58.355 163.153 58.632 163.494 58.632 L 168.807 58.632 C 169.148 58.632 169.426 58.356 169.427 58.013 L 169.427 52.694 C 169.426 52.351 169.149 52.074 168.807 52.073 Z" fill="rgb(228, 34, 96)"></path><path d="M 168.807 61.138 L 163.494 61.138 C 163.153 61.139 162.877 61.417 162.877 61.759 L 162.877 67.076 C 162.876 67.241 162.941 67.398 163.057 67.515 C 163.173 67.631 163.33 67.697 163.494 67.697 L 168.807 67.697 C 169.149 67.697 169.427 67.419 169.427 67.076 L 169.427 61.759 C 169.426 61.416 169.149 61.139 168.807 61.138 Z" fill="rgb(230,230,230)"></path><path d="M 168.807 70.203 L 163.494 70.203 C 163.153 70.204 162.877 70.482 162.877 70.824 L 162.877 76.141 C 162.876 76.305 162.941 76.463 163.057 76.58 C 163.173 76.696 163.33 76.762 163.494 76.762 L 168.807 76.762 C 169.149 76.762 169.427 76.484 169.427 76.141 L 169.427 70.824 C 169.426 70.481 169.149 70.204 168.807 70.203 Z" fill="rgb(255,255,255)"></path><path d="M 168.807 79.268 L 163.494 79.268 C 163.33 79.268 163.173 79.334 163.057 79.45 C 162.941 79.567 162.876 79.724 162.877 79.889 L 162.877 85.206 C 162.876 85.37 162.941 85.528 163.057 85.645 C 163.173 85.761 163.33 85.827 163.494 85.827 L 168.807 85.827 C 169.149 85.827 169.427 85.549 169.427 85.206 L 169.427 79.889 C 169.427 79.546 169.149 79.268 168.807 79.268 Z M 179.961 43.008 L 174.649 43.008 C 174.307 43.009 174.031 43.287 174.031 43.629 L 174.031 48.949 C 174.031 49.29 174.307 49.567 174.649 49.567 L 179.961 49.567 C 180.303 49.567 180.58 49.291 180.581 48.949 L 180.581 43.629 C 180.58 43.286 180.303 43.009 179.961 43.008 Z M 179.961 52.073 L 174.649 52.073 C 174.307 52.074 174.031 52.352 174.031 52.694 L 174.031 58.013 C 174.031 58.355 174.307 58.632 174.649 58.632 L 179.961 58.632 C 180.303 58.632 180.58 58.356 180.581 58.013 L 180.581 52.694 C 180.58 52.351 180.303 52.074 179.961 52.073 Z" fill="rgb(228, 34, 96)"></path><path d="M 179.961 61.138 L 174.649 61.138 C 174.307 61.139 174.031 61.417 174.031 61.759 L 174.031 67.076 C 174.03 67.241 174.095 67.398 174.211 67.515 C 174.327 67.631 174.484 67.697 174.649 67.697 L 179.961 67.697 C 180.304 67.697 180.581 67.419 180.581 67.076 L 180.581 61.759 C 180.58 61.416 180.303 61.139 179.961 61.138 Z" fill="rgb(230,230,230)"></path><path d="M 179.961 70.203 L 174.649 70.203 C 174.307 70.204 174.031 70.482 174.031 70.824 L 174.031 76.141 C 174.03 76.305 174.095 76.463 174.211 76.58 C 174.327 76.696 174.484 76.762 174.649 76.762 L 179.961 76.762 C 180.304 76.762 180.581 76.484 180.581 76.141 L 180.581 70.824 C 180.58 70.481 180.303 70.204 179.961 70.203 Z M 179.961 79.268 L 174.649 79.268 C 174.484 79.268 174.327 79.334 174.211 79.45 C 174.095 79.567 174.03 79.724 174.031 79.889 L 174.031 85.206 C 174.03 85.37 174.095 85.528 174.211 85.645 C 174.327 85.761 174.484 85.827 174.649 85.827 L 179.961 85.827 C 180.304 85.827 180.581 85.549 180.581 85.206 L 180.581 79.889 C 180.581 79.546 180.304 79.268 179.961 79.268 Z" fill="rgb(228, 34, 96)"></path><path d="M 191.115 43.008 L 185.803 43.008 C 185.461 43.009 185.185 43.287 185.185 43.629 L 185.185 48.949 C 185.185 49.29 185.462 49.567 185.803 49.567 L 191.115 49.567 C 191.457 49.567 191.734 49.291 191.736 48.949 L 191.736 43.629 C 191.734 43.286 191.457 43.009 191.115 43.008 Z" fill="rgb(230,230,230)"></path><path d="M 191.115 52.073 L 185.803 52.073 C 185.461 52.074 185.185 52.352 185.185 52.694 L 185.185 58.013 C 185.185 58.355 185.462 58.632 185.803 58.632 L 191.115 58.632 C 191.457 58.632 191.734 58.356 191.736 58.013 L 191.736 52.694 C 191.734 52.351 191.457 52.074 191.115 52.073 Z M 191.115 61.138 L 185.803 61.138 C 185.461 61.139 185.185 61.417 185.185 61.759 L 185.185 67.076 C 185.185 67.241 185.25 67.398 185.365 67.515 C 185.481 67.631 185.639 67.697 185.803 67.697 L 191.115 67.697 C 191.458 67.697 191.735 67.419 191.736 67.076 L 191.736 61.759 C 191.734 61.416 191.457 61.139 191.115 61.138 Z M 191.115 70.203 L 185.803 70.203 C 185.461 70.204 185.185 70.482 185.185 70.824 L 185.185 76.141 C 185.185 76.305 185.25 76.463 185.365 76.58 C 185.481 76.696 185.639 76.762 185.803 76.762 L 191.115 76.762 C 191.458 76.762 191.735 76.484 191.736 76.141 L 191.736 70.824 C 191.734 70.481 191.457 70.204 191.115 70.203 Z" fill="rgb(228, 34, 96)"></path><path d="M 191.115 79.268 L 185.803 79.268 C 185.639 79.268 185.481 79.334 185.365 79.45 C 185.25 79.567 185.185 79.724 185.185 79.889 L 185.185 85.206 C 185.185 85.37 185.25 85.528 185.365 85.645 C 185.481 85.761 185.639 85.827 185.803 85.827 L 191.115 85.827 C 191.458 85.827 191.735 85.549 191.736 85.206 L 191.736 79.889 C 191.735 79.546 191.458 79.268 191.115 79.268 Z M 202.27 43.008 L 196.957 43.008 C 196.616 43.009 196.339 43.287 196.339 43.629 L 196.339 48.949 C 196.339 49.29 196.616 49.567 196.957 49.567 L 202.27 49.567 C 202.611 49.567 202.888 49.291 202.89 48.949 L 202.89 43.629 C 202.889 43.286 202.612 43.009 202.27 43.008 Z M 202.27 52.073 L 196.957 52.073 C 196.616 52.074 196.339 52.352 196.339 52.694 L 196.339 58.013 C 196.339 58.355 196.616 58.632 196.957 58.632 L 202.27 58.632 C 202.611 58.632 202.888 58.356 202.89 58.013 L 202.89 52.694 C 202.889 52.351 202.612 52.074 202.27 52.073 Z" fill="rgb(230,230,230)"></path><path d="M 202.27 61.138 L 196.957 61.138 C 196.616 61.139 196.339 61.417 196.339 61.759 L 196.339 67.076 C 196.339 67.241 196.404 67.398 196.52 67.515 C 196.636 67.631 196.793 67.697 196.957 67.697 L 202.27 67.697 C 202.612 67.697 202.89 67.419 202.89 67.076 L 202.89 61.759 C 202.889 61.416 202.612 61.139 202.27 61.138 Z" fill="rgb(228, 34, 96)"></path><path d="M 202.27 70.203 L 196.957 70.203 C 196.616 70.204 196.339 70.482 196.339 70.824 L 196.339 76.141 C 196.339 76.305 196.404 76.463 196.52 76.58 C 196.636 76.696 196.793 76.762 196.957 76.762 L 202.27 76.762 C 202.612 76.762 202.89 76.484 202.89 76.141 L 202.89 70.824 C 202.889 70.481 202.612 70.204 202.27 70.203 Z M 202.27 79.268 L 196.957 79.268 C 196.793 79.268 196.636 79.334 196.52 79.45 C 196.404 79.567 196.339 79.724 196.339 79.889 L 196.339 85.206 C 196.339 85.37 196.404 85.528 196.52 85.645 C 196.636 85.761 196.793 85.827 196.957 85.827 L 202.27 85.827 C 202.612 85.827 202.89 85.549 202.89 85.206 L 202.89 79.889 C 202.89 79.546 202.612 79.268 202.27 79.268 Z" fill="rgb(230,230,230)"></path><path d="M 80.173 157.664 L 80.025 157.664 L 80.152 157.647 Z" fill="rgb(47,46,65)"></path><path d="M 51.166 42.216 C 51.166 33.202 58.462 25.896 67.463 25.896 C 76.464 25.896 83.761 33.202 83.761 42.216 C 83.761 51.229 76.464 58.535 67.463 58.535 C 58.462 58.535 51.166 51.229 51.166 42.216 Z" fill="rgb(255,182,182)"></path><path d="M 81.736 30.25 C 81.736 30.25 85.999 22.09 76.62 21.348 C 76.62 21.348 68.626 14.086 60.477 20.021 C 60.477 20.021 56.032 20.021 53.602 25.058 C 53.602 25.058 50.106 23.73 49.337 27.283 C 49.337 27.283 46.779 34.701 49.337 41.377 C 51.895 48.053 52.745 48.795 52.745 48.795 C 52.745 48.795 48.542 34.798 58.773 34.056 C 69.004 33.315 80.453 26.912 81.306 35.072 C 82.158 43.232 83.442 45.242 83.442 45.242 C 83.442 45.242 91.54 33.588 81.736 30.25 Z" fill="rgb(93, 64, 55)"></path><path d="M 109.622 82.435 L 109.569 82.712 L 108.98 85.827 L 104.908 107.373 L 104.667 108.641 L 104.162 111.324 L 103.47 114.983 L 101.936 123.093 L 101.497 125.417 L 101.333 126.289 L 101.275 126.594 L 100.82 129 L 100.681 129.726 L 99.57 137.974 L 98.599 145.161 L 101.848 148.415 L 99.911 150.354 L 98.639 157.647 L 98.642 157.664 L 46.752 157.664 C 44.652 156.302 42.583 154.898 40.545 153.453 L 40.972 150.252 C 40.972 150.252 42.441 144.536 41.823 143.853 C 41.208 143.169 39.858 141.949 39.858 141.949 L 41.558 137.974 L 41.795 137.422 L 41.399 129.198 L 41.389 129 L 41.258 126.289 L 41.241 125.94 L 41.215 125.417 L 40.712 114.983 L 40.702 114.811 L 40.549 111.649 L 40.406 108.641 L 40.344 107.373 L 39.731 94.682 L 39.316 86.064 L 38.954 78.561 L 40.411 78.066 L 56 72.761 L 62.457 64.355 L 75.897 64.456 L 82.476 64.506 L 93.453 74.701 L 95.951 75.895 L 95.97 75.905 L 97.762 76.762 L 102.303 78.933 L 107.105 81.231 L 109.569 82.409 Z" fill="rgb(21, 24, 25)"></path><path d="M 64.194 133.18 C 62.2 133.953 59.967 133.803 58.095 132.769 C 56.223 131.735 54.904 129.923 54.494 127.822 L 29.075 124.211 L 37.911 114.202 L 60.695 119.166 C 64.346 118.699 67.768 121.041 68.661 124.617 C 69.554 128.192 67.635 131.871 64.194 133.18 Z" fill="rgb(255,182,182)"></path><path d="M 52.861 114.983 C 52.39 114.385 51.723 113.973 50.979 113.82 L 40.549 111.649 L 39.478 111.426 C 38.219 111.163 37.132 110.375 36.489 109.26 C 36.16 108.681 35.96 108.037 35.905 107.373 C 35.855 106.769 35.927 106.161 36.117 105.586 L 39.731 94.682 L 42.076 87.607 C 42.36 86.753 42.528 85.865 42.575 84.967 C 42.705 82.481 41.937 80.031 40.411 78.066 C 37.656 74.52 32.908 73.197 28.72 74.808 C 28.66 74.83 28.598 74.854 28.539 74.877 C 25.573 76.063 23.337 78.577 22.501 81.664 L 19.954 90.944 L 14.699 110.074 C 13.634 113.953 14.313 118.104 16.557 121.44 C 18.801 124.776 22.388 126.966 26.378 127.435 L 41.399 129.198 L 48.35 130.015 C 50.017 130.215 51.558 129.1 51.89 127.452 C 51.901 127.409 51.91 127.365 51.916 127.321 L 52.083 126.289 L 53.498 117.599 L 53.512 117.51 C 53.661 116.614 53.424 115.696 52.861 114.983 Z" fill="rgb(21, 24, 25)"></path><path d="M 80.385 133.459 C 82.468 133.943 84.657 133.478 86.365 132.19 C 88.073 130.902 89.123 128.923 89.233 126.785 L 113.89 119.62 L 103.732 110.959 L 81.875 119.09 C 78.195 119.144 75.137 121.946 74.757 125.612 C 74.377 129.277 76.794 132.649 80.385 133.459 Z" fill="rgb(255,182,182)"></path><path d="M 126.131 103.594 L 114.405 76.569 C 113.446 74.35 111.732 72.543 109.569 71.469 C 108.901 71.139 108.199 70.883 107.475 70.704 C 107.363 70.676 107.251 70.65 107.139 70.628 C 105.604 70.293 104.013 70.322 102.492 70.714 C 99.68 71.437 97.308 73.325 95.97 75.905 C 95.963 75.915 95.956 75.926 95.951 75.938 C 94.452 78.842 94.419 82.286 95.863 85.218 L 96.008 85.509 L 104.295 102.175 C 104.868 103.328 104.921 104.67 104.443 105.865 C 103.965 107.06 103 107.994 101.791 108.431 L 101.209 108.641 L 90.741 112.427 C 89.109 113.011 88.23 114.783 88.754 116.438 L 88.78 116.521 L 91.714 125.923 C 91.729 125.966 91.743 126.009 91.76 126.052 C 91.786 126.133 91.818 126.212 91.855 126.289 C 92.499 127.735 94.099 128.498 95.627 128.087 L 101.275 126.594 L 102.427 126.289 L 117.014 122.431 C 120.898 121.403 124.141 118.729 125.893 115.109 C 127.645 111.489 127.732 107.284 126.131 103.594 Z" fill="rgb(21, 24, 25)"></path><path d="M 10.71 126.289 C 14.09 130.417 17.736 134.321 21.623 137.974 L 129.438 137.974 C 131.6 137.977 133.352 139.733 133.355 141.899 L 133.51 169.256 C 140.142 166.205 146.354 162.308 151.99 157.664 C 153.554 156.376 155.071 155.033 156.539 153.634 C 157.5 152.722 158.438 151.787 159.353 150.83 C 166.215 143.672 171.771 135.366 175.77 126.289 Z" fill="rgb(63,61,86)"></path><path d="M 159.353 150.83 C 158.44 151.788 157.501 152.722 156.539 153.634 L 133.588 153.634 L 133.588 150.83 Z" fill="rgb(228, 34, 96)"></path><path d="M 109.407 61.138 C 109.176 60.711 108.73 60.445 108.246 60.445 L 30.042 60.445 C 29.312 60.447 28.721 61.04 28.72 61.771 L 28.72 108.641 L 109.569 108.641 L 109.569 61.771 C 109.571 61.549 109.515 61.331 109.407 61.138 Z" fill="rgb(63,61,86)"></path><path d="M 28.649 107.372 L 28.649 113.156 C 28.649 114.164 29.466 114.982 30.473 114.982 L 60.314 114.982 L 60.314 126.396 L 59.917 126.396 C 59.786 126.396 59.68 126.503 59.68 126.634 L 59.68 127.428 C 59.68 127.559 59.786 127.665 59.917 127.665 L 78.442 127.665 C 78.573 127.665 78.679 127.559 78.679 127.428 L 78.679 126.634 C 78.679 126.503 78.573 126.396 78.442 126.396 L 78.046 126.396 L 78.046 114.982 L 107.887 114.982 C 108.894 114.982 109.71 114.164 109.71 113.156 L 109.71 107.372 Z" fill="rgb(63,61,86)"></path><path d="M 60.732 83.294 C 60.732 79.164 64.076 75.816 68.2 75.816 C 72.324 75.816 75.668 79.164 75.668 83.294 C 75.668 87.424 72.324 90.772 68.2 90.772 C 64.076 90.772 60.732 87.424 60.732 83.294 Z" fill="rgb(228, 34, 96)"></path><path d="M 87.228 41.324 L 86.035 41.324 C 86.035 32.295 77.111 26.378 68.108 26.373 C 66.799 26.369 65.492 26.497 64.208 26.753 C 62.763 27.042 61.262 27.388 59.788 27.84 C 53.975 29.624 48.584 33.073 48.584 41.324 C 48.582 42.926 48.786 44.522 49.189 46.073 L 48.035 46.374 C 47.607 44.725 47.39 43.028 47.391 41.324 C 47.391 34.115 50.346 29.163 55.451 26.211 C 58.135 24.658 61.41 23.657 65.162 23.17 C 66.724 22.962 68.302 22.914 69.874 23.027 C 80.226 23.772 87.228 31.721 87.228 41.324 Z" fill="rgb(228, 34, 96)"></path><path d="M 89.215 41.986 L 88.745 38.508 C 88.629 37.629 88.206 36.82 87.552 36.224 C 86.701 35.436 85.535 35.084 84.391 35.269 L 83.645 35.371 C 83.232 35.426 82.858 35.643 82.607 35.976 C 82.354 36.307 82.243 36.726 82.299 37.139 L 83.385 45.151 C 83.476 45.82 83.985 46.356 84.649 46.481 C 84.745 46.5 84.842 46.51 84.94 46.51 C 85.01 46.51 85.08 46.505 85.15 46.495 L 85.985 46.383 C 87.014 46.246 87.94 45.691 88.547 44.847 C 88.611 44.756 88.673 44.663 88.73 44.568 C 89.177 43.786 89.348 42.876 89.215 41.986 Z" fill="rgb(228, 34, 96)"></path><path d="M 83.163 35.517 C 82.944 35.624 82.753 35.781 82.607 35.976 C 82.354 36.307 82.243 36.726 82.299 37.139 L 83.385 45.151 C 83.476 45.82 83.985 46.356 84.649 46.481 Z" fill="rgb(0, 0, 0)"></path><path d="M 89.215 41.986 L 88.745 38.508 C 88.629 37.629 88.206 36.82 87.552 36.224 L 88.633 44.195 C 88.649 44.323 88.682 44.448 88.73 44.568 C 89.177 43.786 89.348 42.876 89.215 41.986 Z" fill="rgb(0, 0, 0)"></path><path d="M 84.688 42.916 C 84.564 42.001 84.728 41.223 85.054 41.179 C 85.381 41.134 85.746 41.84 85.87 42.755 C 85.994 43.67 85.83 44.448 85.503 44.492 C 85.177 44.537 84.812 43.831 84.688 42.916 Z" fill="rgb(0, 0, 0)"></path><path d="M 83.972 38.616 C 83.848 37.701 84.012 36.923 84.339 36.879 C 84.665 36.835 85.03 37.541 85.154 38.456 C 85.278 39.371 85.114 40.148 84.788 40.193 C 84.461 40.237 84.096 39.531 83.972 38.616 Z" fill="rgb(0, 0, 0)"></path><path d="M 88.504 40.288 C 88.38 39.373 88.545 38.595 88.871 38.551 C 89.197 38.507 89.562 39.213 89.686 40.128 C 89.81 41.043 89.646 41.82 89.32 41.865 C 88.993 41.909 88.628 41.203 88.504 40.288 Z" fill="rgb(0, 0, 0)"></path><path d="M 68.108 26.373 C 66.799 26.369 65.492 26.497 64.208 26.753 C 62.763 27.042 61.262 27.388 59.788 27.84 C 57.486 27.728 55.792 27.13 55.451 26.211 C 58.135 24.658 61.41 23.657 65.162 23.17 C 66.724 22.962 68.302 22.914 69.874 23.027 C 70.21 23.224 70.446 23.556 70.522 23.939 C 70.634 24.77 69.687 25.654 68.108 26.373 Z" fill="rgb(228, 34, 96)"></path><path d="M 52.88 49.613 L 51.043 41.966 C 50.909 41.402 50.45 40.974 49.879 40.88 C 49.8 40.867 49.72 40.861 49.64 40.86 C 49.528 40.861 49.416 40.875 49.306 40.901 L 48.595 41.073 C 46.69 41.535 45.517 43.454 45.974 45.363 L 46.797 48.793 C 46.985 49.601 47.432 50.324 48.071 50.852 C 48.174 50.936 48.282 51.013 48.395 51.084 C 49.203 51.591 50.181 51.749 51.107 51.523 L 51.816 51.351 C 52.003 51.308 52.179 51.226 52.333 51.11 C 52.802 50.768 53.018 50.177 52.88 49.613 Z" fill="rgb(228, 34, 96)"></path><path d="M 48.057 46.703 C 47.841 45.805 47.926 45.015 48.246 44.938 C 48.566 44.861 49.001 45.526 49.217 46.424 C 49.432 47.322 49.348 48.112 49.028 48.189 C 48.707 48.266 48.273 47.601 48.057 46.703 Z" fill="rgb(0, 0, 0)"></path><path d="M 45.672 47.42 C 45.456 46.522 45.54 45.732 45.861 45.655 C 46.181 45.577 46.615 46.243 46.831 47.14 C 47.047 48.038 46.962 48.829 46.642 48.906 C 46.322 48.983 45.887 48.318 45.672 47.42 Z" fill="rgb(0, 0, 0)"></path><path d="M 52.997 49.584 L 51.16 41.938 C 51.013 41.328 50.516 40.865 49.898 40.763 L 52.405 51.206 C 52.911 50.834 53.145 50.195 52.997 49.584 Z" fill="rgb(0, 0, 0)"></path><path d="M 46.389 43.849 C 46.338 43.636 46.243 43.437 46.11 43.263 C 45.852 43.933 45.804 44.666 45.974 45.363 L 46.797 48.793 C 46.985 49.601 47.432 50.324 48.071 50.852 Z" fill="rgb(0, 0, 0)"></path></svg>