<svg width="203" height="177" viewBox="0 0 203 177" fill="none" xmlns="http://www.w3.org/2000/svg">
<path d="M100.087 176.938C99.455 176.952 98.821 176.959 98.184 176.959C83.053 176.959 64.022 168.867 46.752 157.664C45.323 156.737 43.907 155.789 42.503 154.819L43.734 147.318L80.997 142.364L99.699 156.684L100.087 176.938Z" fill="#2F2E41"/>
<path d="M101.881 43.008H96.571C96.229 43.008 95.951 43.286 95.951 43.629V48.949C95.951 49.113 96.017 49.271 96.133 49.387C96.249 49.503 96.407 49.568 96.571 49.567H101.881C102.223 49.567 102.5 49.291 102.501 48.949V43.629C102.5 43.286 102.223 43.009 101.881 43.008Z" fill="white"/>
<path d="M101.881 52.073H96.571C96.229 52.073 95.951 52.351 95.951 52.694V58.013C95.951 58.178 96.017 58.336 96.133 58.452C96.249 58.568 96.407 58.633 96.571 58.632H101.881C102.223 58.632 102.5 58.356 102.501 58.013V52.694C102.5 52.351 102.223 52.074 101.881 52.073ZM101.881 61.138H96.571C96.229 61.138 95.951 61.416 95.951 61.759V67.076C95.951 67.241 96.016 67.399 96.132 67.516C96.249 67.632 96.407 67.697 96.571 67.697H101.881C102.224 67.697 102.501 67.419 102.501 67.076V61.759C102.5 61.416 102.223 61.139 101.881 61.138ZM102.492 70.714C102.437 70.419 102.181 70.204 101.881 70.203H96.571C96.229 70.203 95.951 70.481 95.951 70.824V76.141C95.951 76.306 96.016 76.464 96.132 76.581C96.249 76.697 96.407 76.762 96.571 76.762H101.881C102.224 76.762 102.501 76.484 102.501 76.141V70.824C102.502 70.787 102.499 70.75 102.492 70.714ZM102.122 79.316C102.046 79.284 101.964 79.268 101.881 79.268H96.571C96.407 79.267 96.249 79.333 96.132 79.449C96.016 79.566 95.951 79.724 95.951 79.889V85.206C95.95 85.371 96.015 85.529 96.132 85.646C96.248 85.763 96.407 85.828 96.571 85.827H101.881C102.224 85.827 102.501 85.549 102.501 85.206V79.889C102.501 79.639 102.352 79.414 102.122 79.316ZM113.035 43.008H107.725C107.383 43.008 107.105 43.286 107.105 43.629V48.949C107.105 49.113 107.171 49.271 107.287 49.387C107.404 49.503 107.561 49.568 107.725 49.567H113.035C113.377 49.567 113.654 49.291 113.656 48.949V43.629C113.655 43.286 113.378 43.009 113.035 43.008Z" fill="#E6E6E6"/>
<path d="M113.035 52.073H107.725C107.383 52.073 107.105 52.351 107.105 52.694V58.013C107.105 58.178 107.171 58.336 107.287 58.452C107.404 58.568 107.561 58.633 107.725 58.632H113.035C113.377 58.632 113.654 58.356 113.656 58.013V52.694C113.655 52.351 113.378 52.074 113.035 52.073ZM113.035 61.138H107.725C107.383 61.138 107.105 61.416 107.105 61.759V67.076C107.105 67.241 107.17 67.399 107.287 67.516C107.403 67.632 107.561 67.697 107.725 67.697H113.035C113.378 67.697 113.656 67.419 113.656 67.076V61.759C113.655 61.416 113.378 61.139 113.035 61.138ZM113.035 70.203H107.725C107.459 70.203 107.222 70.374 107.139 70.628C107.117 70.691 107.105 70.757 107.105 70.824V76.141C107.105 76.306 107.17 76.464 107.287 76.581C107.403 76.697 107.561 76.762 107.725 76.762H113.035C113.378 76.762 113.656 76.484 113.656 76.141V70.824C113.655 70.481 113.378 70.204 113.035 70.203Z" fill="#FF6201"/>
<path d="M113.035 79.268H107.725C107.561 79.267 107.403 79.333 107.287 79.449C107.17 79.566 107.105 79.724 107.105 79.889V85.206C107.105 85.371 107.17 85.529 107.287 85.646C107.403 85.762 107.561 85.827 107.725 85.827H113.035C113.378 85.827 113.656 85.549 113.656 85.206V79.889C113.656 79.546 113.378 79.268 113.035 79.268Z" fill="#E6E6E6"/>
<path d="M124.19 43.008H118.88C118.537 43.008 118.26 43.286 118.26 43.629V48.949C118.26 49.113 118.325 49.271 118.442 49.387C118.558 49.503 118.716 49.568 118.88 49.567H124.19C124.531 49.567 124.809 49.291 124.81 48.949V43.629C124.809 43.286 124.532 43.009 124.19 43.008ZM124.19 52.073H118.88C118.537 52.073 118.26 52.351 118.26 52.694V58.013C118.26 58.178 118.325 58.336 118.442 58.452C118.558 58.568 118.716 58.633 118.88 58.632H124.19C124.531 58.632 124.809 58.356 124.81 58.013V52.694C124.809 52.351 124.532 52.074 124.19 52.073Z" fill="#FF6201"/>
<path d="M124.19 61.138H118.88C118.537 61.138 118.26 61.416 118.26 61.759V67.076C118.259 67.241 118.324 67.399 118.441 67.516C118.557 67.632 118.715 67.697 118.88 67.697H124.19C124.532 67.697 124.81 67.419 124.81 67.076V61.759C124.809 61.416 124.532 61.139 124.19 61.138Z" fill="#E6E6E6"/>
<path d="M124.19 70.203H118.88C118.537 70.203 118.26 70.481 118.26 70.824V76.141C118.259 76.306 118.324 76.464 118.441 76.581C118.557 76.697 118.715 76.762 118.88 76.762H124.19C124.532 76.762 124.81 76.484 124.81 76.141V70.824C124.809 70.481 124.532 70.204 124.19 70.203ZM124.19 79.268H118.88C118.715 79.267 118.557 79.333 118.441 79.449C118.324 79.566 118.259 79.724 118.26 79.889V85.206C118.259 85.371 118.324 85.529 118.441 85.646C118.557 85.762 118.715 85.827 118.88 85.827H124.19C124.532 85.827 124.81 85.549 124.81 85.206V79.889C124.81 79.546 124.532 79.268 124.19 79.268ZM135.344 43.008H130.034C129.692 43.008 129.414 43.286 129.414 43.629V48.949C129.414 49.113 129.479 49.271 129.596 49.387C129.712 49.503 129.87 49.568 130.034 49.567H135.344C135.686 49.567 135.963 49.291 135.964 48.949V43.629C135.963 43.286 135.686 43.009 135.344 43.008Z" fill="#FF6201"/>
<path d="M135.344 52.073H130.034C129.692 52.073 129.414 52.351 129.414 52.694V58.013C129.414 58.178 129.479 58.336 129.596 58.452C129.712 58.568 129.87 58.633 130.034 58.632H135.344C135.686 58.632 135.963 58.356 135.964 58.013V52.694C135.963 52.351 135.686 52.074 135.344 52.073ZM135.344 61.138H130.034C129.692 61.138 129.414 61.416 129.414 61.759V67.076C129.413 67.241 129.479 67.399 129.595 67.516C129.711 67.632 129.869 67.697 130.034 67.697H135.344C135.686 67.697 135.964 67.419 135.964 67.076V61.759C135.963 61.416 135.686 61.139 135.344 61.138Z" fill="white"/>
<path d="M135.344 70.203H130.034C129.692 70.203 129.414 70.481 129.414 70.824V76.141C129.413 76.306 129.479 76.464 129.595 76.581C129.711 76.697 129.869 76.762 130.034 76.762H135.344C135.686 76.762 135.964 76.484 135.964 76.141V70.824C135.963 70.481 135.686 70.204 135.344 70.203Z" fill="#E6E6E6"/>
<path d="M135.344 79.268H130.034C129.869 79.267 129.711 79.333 129.595 79.449C129.479 79.566 129.413 79.724 129.414 79.889V85.206C129.413 85.371 129.479 85.529 129.595 85.646C129.711 85.762 129.869 85.827 130.034 85.827H135.344C135.686 85.827 135.964 85.549 135.964 85.206V79.889C135.964 79.546 135.686 79.268 135.344 79.268Z" fill="#FF6201"/>
<path d="M146.498 43.008H141.186C140.844 43.009 140.568 43.287 140.568 43.629V48.949C140.568 49.29 140.845 49.567 141.186 49.567H146.498C146.84 49.567 147.117 49.291 147.118 48.949V43.629C147.117 43.286 146.84 43.009 146.498 43.008ZM146.498 52.073H141.186C140.844 52.074 140.568 52.352 140.568 52.694V58.013C140.568 58.355 140.845 58.632 141.186 58.632H146.498C146.84 58.632 147.117 58.356 147.118 58.013V52.694C147.117 52.351 146.84 52.074 146.498 52.073ZM146.498 61.138H141.186C140.844 61.139 140.568 61.417 140.568 61.759V67.076C140.568 67.241 140.633 67.398 140.748 67.515C140.864 67.631 141.022 67.697 141.186 67.697H146.498C146.841 67.697 147.118 67.419 147.118 67.076V61.759C147.117 61.416 146.84 61.139 146.498 61.138Z" fill="white"/>
<path d="M146.498 70.203H141.186C140.844 70.204 140.568 70.482 140.568 70.824V76.141C140.568 76.305 140.633 76.463 140.748 76.58C140.864 76.696 141.022 76.762 141.186 76.762H146.498C146.841 76.762 147.118 76.484 147.118 76.141V70.824C147.117 70.481 146.84 70.204 146.498 70.203Z" fill="#FF6201"/>
<path d="M146.498 79.268H141.186C141.022 79.268 140.864 79.334 140.748 79.45C140.633 79.567 140.568 79.724 140.568 79.889V85.206C140.568 85.37 140.633 85.528 140.748 85.645C140.864 85.761 141.022 85.827 141.186 85.827H146.498C146.841 85.827 147.118 85.549 147.118 85.206V79.889C147.118 79.546 146.841 79.268 146.498 79.268Z" fill="#E6E6E6"/>
<path d="M157.653 43.008H152.34C151.999 43.009 151.722 43.287 151.722 43.629V48.949C151.722 49.29 151.999 49.567 152.34 49.567H157.653C157.994 49.567 158.271 49.291 158.273 48.949V43.629C158.272 43.286 157.995 43.009 157.653 43.008ZM157.653 52.073H152.34C151.999 52.074 151.722 52.352 151.722 52.694V58.013C151.722 58.355 151.999 58.632 152.34 58.632H157.653C157.994 58.632 158.271 58.356 158.273 58.013V52.694C158.272 52.351 157.995 52.074 157.653 52.073Z" fill="white"/>
<path d="M157.653 61.138H152.34C151.999 61.139 151.722 61.417 151.722 61.759V67.076C151.722 67.241 151.787 67.398 151.903 67.515C152.019 67.631 152.176 67.697 152.34 67.697H157.653C157.995 67.697 158.273 67.419 158.273 67.076V61.759C158.272 61.416 157.995 61.139 157.653 61.138Z" fill="#FF6201"/>
<path d="M157.653 70.203H152.34C151.999 70.204 151.722 70.482 151.722 70.824V76.141C151.722 76.305 151.787 76.463 151.903 76.58C152.019 76.696 152.176 76.762 152.34 76.762H157.653C157.995 76.762 158.273 76.484 158.273 76.141V70.824C158.272 70.481 157.995 70.204 157.653 70.203Z" fill="#E6E6E6"/>
<path d="M157.653 79.268H152.34C152.176 79.268 152.019 79.334 151.903 79.45C151.787 79.567 151.722 79.724 151.722 79.889V85.206C151.722 85.37 151.787 85.528 151.903 85.645C152.019 85.761 152.176 85.827 152.34 85.827H157.653C157.995 85.827 158.273 85.549 158.273 85.206V79.889C158.273 79.546 157.995 79.268 157.653 79.268Z" fill="white"/>
<path d="M168.807 43.008H163.494C163.153 43.009 162.876 43.287 162.877 43.629V48.949C162.877 49.29 163.153 49.567 163.494 49.567H168.807C169.148 49.567 169.426 49.291 169.427 48.949V43.629C169.426 43.286 169.149 43.009 168.807 43.008ZM168.807 52.073H163.494C163.153 52.074 162.876 52.352 162.877 52.694V58.013C162.877 58.355 163.153 58.632 163.494 58.632H168.807C169.148 58.632 169.426 58.356 169.427 58.013V52.694C169.426 52.351 169.149 52.074 168.807 52.073Z" fill="#FF6201"/>
<path d="M168.807 61.138H163.494C163.153 61.139 162.877 61.417 162.877 61.759V67.076C162.876 67.241 162.941 67.398 163.057 67.515C163.173 67.631 163.33 67.697 163.494 67.697H168.807C169.149 67.697 169.427 67.419 169.427 67.076V61.759C169.426 61.416 169.149 61.139 168.807 61.138Z" fill="#E6E6E6"/>
<path d="M168.807 70.203H163.494C163.153 70.204 162.877 70.482 162.877 70.824V76.141C162.876 76.305 162.941 76.463 163.057 76.58C163.173 76.696 163.33 76.762 163.494 76.762H168.807C169.149 76.762 169.427 76.484 169.427 76.141V70.824C169.426 70.481 169.149 70.204 168.807 70.203Z" fill="white"/>
<path d="M168.807 79.268H163.494C163.33 79.268 163.173 79.334 163.057 79.45C162.941 79.567 162.876 79.724 162.877 79.889V85.206C162.876 85.37 162.941 85.528 163.057 85.645C163.173 85.761 163.33 85.827 163.494 85.827H168.807C169.149 85.827 169.427 85.549 169.427 85.206V79.889C169.427 79.546 169.149 79.268 168.807 79.268ZM179.961 43.008H174.649C174.307 43.009 174.031 43.287 174.031 43.629V48.949C174.031 49.29 174.307 49.567 174.649 49.567H179.961C180.303 49.567 180.58 49.291 180.581 48.949V43.629C180.58 43.286 180.303 43.009 179.961 43.008ZM179.961 52.073H174.649C174.307 52.074 174.031 52.352 174.031 52.694V58.013C174.031 58.355 174.307 58.632 174.649 58.632H179.961C180.303 58.632 180.58 58.356 180.581 58.013V52.694C180.58 52.351 180.303 52.074 179.961 52.073Z" fill="#FF6201"/>
<path d="M179.961 61.138H174.649C174.307 61.139 174.031 61.417 174.031 61.759V67.076C174.03 67.241 174.095 67.398 174.211 67.515C174.327 67.631 174.484 67.697 174.649 67.697H179.961C180.304 67.697 180.581 67.419 180.581 67.076V61.759C180.58 61.416 180.303 61.139 179.961 61.138Z" fill="#E6E6E6"/>
<path d="M179.961 70.203H174.649C174.307 70.204 174.031 70.482 174.031 70.824V76.141C174.03 76.305 174.095 76.463 174.211 76.58C174.327 76.696 174.484 76.762 174.649 76.762H179.961C180.304 76.762 180.581 76.484 180.581 76.141V70.824C180.58 70.481 180.303 70.204 179.961 70.203ZM179.961 79.268H174.649C174.484 79.268 174.327 79.334 174.211 79.45C174.095 79.567 174.03 79.724 174.031 79.889V85.206C174.03 85.37 174.095 85.528 174.211 85.645C174.327 85.761 174.484 85.827 174.649 85.827H179.961C180.304 85.827 180.581 85.549 180.581 85.206V79.889C180.581 79.546 180.304 79.268 179.961 79.268Z" fill="#FF6201"/>
<path d="M191.115 43.008H185.803C185.461 43.009 185.185 43.287 185.185 43.629V48.949C185.185 49.29 185.462 49.567 185.803 49.567H191.115C191.457 49.567 191.734 49.291 191.736 48.949V43.629C191.734 43.286 191.457 43.009 191.115 43.008Z" fill="#E6E6E6"/>
<path d="M191.115 52.073H185.803C185.461 52.074 185.185 52.352 185.185 52.694V58.013C185.185 58.355 185.462 58.632 185.803 58.632H191.115C191.457 58.632 191.734 58.356 191.736 58.013V52.694C191.734 52.351 191.457 52.074 191.115 52.073ZM191.115 61.138H185.803C185.461 61.139 185.185 61.417 185.185 61.759V67.076C185.185 67.241 185.25 67.398 185.365 67.515C185.481 67.631 185.639 67.697 185.803 67.697H191.115C191.458 67.697 191.735 67.419 191.736 67.076V61.759C191.734 61.416 191.457 61.139 191.115 61.138ZM191.115 70.203H185.803C185.461 70.204 185.185 70.482 185.185 70.824V76.141C185.185 76.305 185.25 76.463 185.365 76.58C185.481 76.696 185.639 76.762 185.803 76.762H191.115C191.458 76.762 191.735 76.484 191.736 76.141V70.824C191.734 70.481 191.457 70.204 191.115 70.203Z" fill="#FF6201"/>
<path d="M191.115 79.268H185.803C185.639 79.268 185.481 79.334 185.365 79.45C185.25 79.567 185.185 79.724 185.185 79.889V85.206C185.185 85.37 185.25 85.528 185.365 85.645C185.481 85.761 185.639 85.827 185.803 85.827H191.115C191.458 85.827 191.735 85.549 191.736 85.206V79.889C191.735 79.546 191.458 79.268 191.115 79.268ZM202.27 43.008H196.957C196.616 43.009 196.339 43.287 196.339 43.629V48.949C196.339 49.29 196.616 49.567 196.957 49.567H202.27C202.611 49.567 202.888 49.291 202.89 48.949V43.629C202.889 43.286 202.612 43.009 202.27 43.008ZM202.27 52.073H196.957C196.616 52.074 196.339 52.352 196.339 52.694V58.013C196.339 58.355 196.616 58.632 196.957 58.632H202.27C202.611 58.632 202.888 58.356 202.89 58.013V52.694C202.889 52.351 202.612 52.074 202.27 52.073Z" fill="#E6E6E6"/>
<path d="M202.27 61.138H196.957C196.616 61.139 196.339 61.417 196.339 61.759V67.076C196.339 67.241 196.404 67.398 196.52 67.515C196.636 67.631 196.793 67.697 196.957 67.697H202.27C202.612 67.697 202.89 67.419 202.89 67.076V61.759C202.889 61.416 202.612 61.139 202.27 61.138Z" fill="#FF6201"/>
<path d="M202.27 70.203H196.957C196.616 70.204 196.339 70.482 196.339 70.824V76.141C196.339 76.305 196.404 76.463 196.52 76.58C196.636 76.696 196.793 76.762 196.957 76.762H202.27C202.612 76.762 202.89 76.484 202.89 76.141V70.824C202.889 70.481 202.612 70.204 202.27 70.203ZM202.27 79.268H196.957C196.793 79.268 196.636 79.334 196.52 79.45C196.404 79.567 196.339 79.724 196.339 79.889V85.206C196.339 85.37 196.404 85.528 196.52 85.645C196.636 85.761 196.793 85.827 196.957 85.827H202.27C202.612 85.827 202.89 85.549 202.89 85.206V79.889C202.89 79.546 202.612 79.268 202.27 79.268Z" fill="#E6E6E6"/>
<path d="M80.173 157.664H80.025L80.152 157.647L80.173 157.664Z" fill="#2F2E41"/>
<path d="M51.166 42.216C51.166 33.202 58.462 25.896 67.463 25.896C76.464 25.896 83.761 33.202 83.761 42.216C83.761 51.229 76.464 58.535 67.463 58.535C58.462 58.535 51.166 51.229 51.166 42.216Z" fill="#FFB6B6"/>
<path d="M81.736 30.25C81.736 30.25 85.999 22.09 76.62 21.348C76.62 21.348 68.626 14.086 60.477 20.021C60.477 20.021 56.032 20.021 53.602 25.058C53.602 25.058 50.106 23.73 49.337 27.283C49.337 27.283 46.779 34.701 49.337 41.377C51.895 48.053 52.745 48.795 52.745 48.795C52.745 48.795 48.542 34.798 58.773 34.056C69.004 33.315 80.453 26.912 81.306 35.072C82.158 43.232 83.442 45.242 83.442 45.242C83.442 45.242 91.54 33.588 81.736 30.25Z" fill="#5D4037"/>
<path d="M109.622 82.435L109.569 82.712L108.98 85.827L104.908 107.373L104.667 108.641L104.162 111.324L103.47 114.983L101.936 123.093L101.497 125.417L101.333 126.289L101.275 126.594L100.82 129L100.681 129.726L99.57 137.974L98.599 145.161L101.848 148.415L99.911 150.354L98.639 157.647L98.642 157.664H46.752C44.652 156.302 42.583 154.898 40.545 153.453L40.972 150.252C40.972 150.252 42.441 144.536 41.823 143.853C41.208 143.169 39.858 141.949 39.858 141.949L41.558 137.974L41.795 137.422L41.399 129.198L41.389 129L41.258 126.289L41.241 125.94L41.215 125.417L40.712 114.983L40.702 114.811L40.549 111.649L40.406 108.641L40.344 107.373L39.731 94.682L39.316 86.064L38.954 78.561L40.411 78.066L56 72.761L62.457 64.355L75.897 64.456L82.476 64.506L93.453 74.701L95.951 75.895L95.97 75.905L97.762 76.762L102.303 78.933L107.105 81.231L109.569 82.409L109.622 82.435Z" fill="#151819"/>
<path d="M64.194 133.18C62.2 133.953 59.967 133.803 58.095 132.769C56.223 131.735 54.904 129.923 54.494 127.822L29.075 124.211L37.911 114.202L60.695 119.166C64.346 118.699 67.768 121.041 68.661 124.617C69.554 128.192 67.635 131.871 64.194 133.18Z" fill="#FFB6B6"/>
<path d="M52.861 114.983C52.39 114.385 51.723 113.973 50.979 113.82L40.549 111.649L39.478 111.426C38.219 111.163 37.132 110.375 36.489 109.26C36.16 108.681 35.96 108.037 35.905 107.373C35.855 106.769 35.927 106.161 36.117 105.586L39.731 94.682L42.076 87.607C42.36 86.753 42.528 85.865 42.575 84.967C42.705 82.481 41.937 80.031 40.411 78.066C37.656 74.52 32.908 73.197 28.72 74.808C28.66 74.83 28.598 74.854 28.539 74.877C25.573 76.063 23.337 78.577 22.501 81.664L19.954 90.944L14.699 110.074C13.634 113.953 14.313 118.104 16.557 121.44C18.801 124.776 22.388 126.966 26.378 127.435L41.399 129.198L48.35 130.015C50.017 130.215 51.558 129.1 51.89 127.452C51.901 127.409 51.91 127.365 51.916 127.321L52.083 126.289L53.498 117.599L53.512 117.51C53.661 116.614 53.424 115.696 52.861 114.983Z" fill="#151819"/>
<path d="M80.385 133.459C82.468 133.943 84.657 133.478 86.365 132.19C88.073 130.902 89.123 128.923 89.233 126.785L113.89 119.62L103.732 110.959L81.875 119.09C78.195 119.144 75.137 121.946 74.757 125.612C74.377 129.277 76.794 132.649 80.385 133.459Z" fill="#FFB6B6"/>
<path d="M126.131 103.594L114.405 76.569C113.446 74.35 111.732 72.543 109.569 71.469C108.901 71.139 108.199 70.883 107.475 70.704C107.363 70.676 107.251 70.65 107.139 70.628C105.604 70.293 104.013 70.322 102.492 70.714C99.68 71.437 97.308 73.325 95.97 75.905C95.963 75.915 95.956 75.926 95.951 75.938C94.452 78.842 94.419 82.286 95.863 85.218L96.008 85.509L104.295 102.175C104.868 103.328 104.921 104.67 104.443 105.865C103.965 107.06 103 107.994 101.791 108.431L101.209 108.641L90.741 112.427C89.109 113.011 88.23 114.783 88.754 116.438L88.78 116.521L91.714 125.923C91.729 125.966 91.743 126.009 91.76 126.052C91.786 126.133 91.818 126.212 91.855 126.289C92.499 127.735 94.099 128.498 95.627 128.087L101.275 126.594L102.427 126.289L117.014 122.431C120.898 121.403 124.141 118.729 125.893 115.109C127.645 111.489 127.732 107.284 126.131 103.594Z" fill="#151819"/>
<path d="M10.71 126.289C14.09 130.417 17.736 134.321 21.623 137.974H129.438C131.6 137.977 133.352 139.733 133.355 141.899L133.51 169.256C140.142 166.205 146.354 162.308 151.99 157.664C153.554 156.376 155.071 155.033 156.539 153.634C157.5 152.722 158.438 151.787 159.353 150.83C166.215 143.672 171.771 135.366 175.77 126.289H10.71Z" fill="#3F3D56"/>
<path d="M159.353 150.83C158.44 151.788 157.501 152.722 156.539 153.634H133.588V150.83H159.353Z" fill="#FF6201"/>
<path d="M109.407 61.138C109.176 60.711 108.73 60.445 108.246 60.445H30.042C29.312 60.447 28.721 61.04 28.72 61.771V108.641H109.569V61.771C109.571 61.549 109.515 61.331 109.407 61.138Z" fill="#3F3D56"/>
<path d="M28.649 107.372V113.156C28.649 114.164 29.466 114.982 30.473 114.982H60.314V126.396H59.917C59.786 126.396 59.68 126.503 59.68 126.634V127.428C59.68 127.559 59.786 127.665 59.917 127.665H78.442C78.573 127.665 78.679 127.559 78.679 127.428V126.634C78.679 126.503 78.573 126.396 78.442 126.396H78.046V114.982H107.887C108.894 114.982 109.71 114.164 109.71 113.156V107.372H28.649Z" fill="#3F3D56"/>
<path d="M60.732 83.294C60.732 79.164 64.076 75.816 68.2 75.816C72.324 75.816 75.668 79.164 75.668 83.294C75.668 87.424 72.324 90.772 68.2 90.772C64.076 90.772 60.732 87.424 60.732 83.294Z" fill="#FF6201"/>
<path d="M87.228 41.324H86.035C86.035 32.295 77.111 26.378 68.108 26.373C66.799 26.369 65.492 26.497 64.208 26.753C62.763 27.042 61.262 27.388 59.788 27.84C53.975 29.624 48.584 33.073 48.584 41.324C48.582 42.926 48.786 44.522 49.189 46.073L48.035 46.374C47.607 44.725 47.39 43.028 47.391 41.324C47.391 34.115 50.346 29.163 55.451 26.211C58.135 24.658 61.41 23.657 65.162 23.17C66.724 22.962 68.302 22.914 69.874 23.027C80.226 23.772 87.228 31.721 87.228 41.324Z" fill="#FF6201"/>
<path d="M89.215 41.986L88.745 38.508C88.629 37.629 88.206 36.82 87.552 36.224C86.701 35.436 85.535 35.084 84.391 35.269L83.645 35.371C83.232 35.426 82.858 35.643 82.607 35.976C82.354 36.307 82.243 36.726 82.299 37.139L83.385 45.151C83.476 45.82 83.985 46.356 84.649 46.481C84.745 46.5 84.842 46.51 84.94 46.51C85.01 46.51 85.08 46.505 85.15 46.495L85.985 46.383C87.014 46.246 87.94 45.691 88.547 44.847C88.611 44.756 88.673 44.663 88.73 44.568C89.177 43.786 89.348 42.876 89.215 41.986Z" fill="#FF6201"/>
<path d="M83.163 35.517C82.944 35.624 82.753 35.781 82.607 35.976C82.354 36.307 82.243 36.726 82.299 37.139L83.385 45.151C83.476 45.82 83.985 46.356 84.649 46.481L83.163 35.517Z" fill="black"/>
<path d="M89.215 41.986L88.745 38.508C88.629 37.629 88.206 36.82 87.552 36.224L88.633 44.195C88.649 44.323 88.682 44.448 88.73 44.568C89.177 43.786 89.348 42.876 89.215 41.986Z" fill="black"/>
<path d="M84.688 42.916C84.564 42.001 84.728 41.223 85.054 41.179C85.381 41.134 85.746 41.84 85.87 42.755C85.994 43.67 85.83 44.448 85.503 44.492C85.177 44.537 84.812 43.831 84.688 42.916Z" fill="black"/>
<path d="M83.972 38.616C83.848 37.701 84.012 36.923 84.339 36.879C84.665 36.835 85.03 37.541 85.154 38.456C85.278 39.371 85.114 40.148 84.788 40.193C84.461 40.237 84.096 39.531 83.972 38.616Z" fill="black"/>
<path d="M88.504 40.288C88.38 39.373 88.545 38.595 88.871 38.551C89.197 38.507 89.562 39.213 89.686 40.128C89.81 41.043 89.646 41.82 89.32 41.865C88.993 41.909 88.628 41.203 88.504 40.288Z" fill="black"/>
<path d="M68.108 26.373C66.799 26.369 65.492 26.497 64.208 26.753C62.763 27.042 61.262 27.388 59.788 27.84C57.486 27.728 55.792 27.13 55.451 26.211C58.135 24.658 61.41 23.657 65.162 23.17C66.724 22.962 68.302 22.914 69.874 23.027C70.21 23.224 70.446 23.556 70.522 23.939C70.634 24.77 69.687 25.654 68.108 26.373Z" fill="#FF6201"/>
<path d="M52.88 49.613L51.043 41.966C50.909 41.402 50.45 40.974 49.879 40.88C49.8 40.867 49.72 40.861 49.64 40.86C49.528 40.861 49.416 40.875 49.306 40.901L48.595 41.073C46.69 41.535 45.517 43.454 45.974 45.363L46.797 48.793C46.985 49.601 47.432 50.324 48.071 50.852C48.174 50.936 48.282 51.013 48.395 51.084C49.203 51.591 50.181 51.749 51.107 51.523L51.816 51.351C52.003 51.308 52.179 51.226 52.333 51.11C52.802 50.768 53.018 50.177 52.88 49.613Z" fill="#FF6201"/>
<path d="M48.057 46.703C47.841 45.805 47.926 45.015 48.246 44.938C48.566 44.861 49.001 45.526 49.217 46.424C49.432 47.322 49.348 48.112 49.028 48.189C48.707 48.266 48.273 47.601 48.057 46.703Z" fill="black"/>
<path d="M45.672 47.42C45.456 46.522 45.54 45.732 45.861 45.655C46.181 45.577 46.615 46.243 46.831 47.14C47.047 48.038 46.962 48.829 46.642 48.906C46.322 48.983 45.887 48.318 45.672 47.42Z" fill="black"/>
<path d="M52.997 49.584L51.16 41.938C51.013 41.328 50.516 40.865 49.898 40.763L52.405 51.206C52.911 50.834 53.145 50.195 52.997 49.584Z" fill="black"/>
<path d="M46.389 43.849C46.338 43.636 46.243 43.437 46.11 43.263C45.852 43.933 45.804 44.666 45.974 45.363L46.797 48.793C46.985 49.601 47.432 50.324 48.071 50.852L46.389 43.849Z" fill="black"/>
</svg>
