<svg width="230" height="230" viewBox="0 0 230 230" fill="none" xmlns="http://www.w3.org/2000/svg">
<g clip-path="url(#clip0_196_476)">
<path d="M162.342 185.64C167.481 176.991 173.419 168.818 180.055 161.257C181.051 164.462 182.746 167.449 184.989 169.947C185.957 166.922 181.92 162.403 183.307 159.546C183.888 158.349 204.444 146.874 220.211 144.161C219.272 155.701 216.982 166.802 211.791 178.381C209.754 177.193 206.238 177.516 204.2 176.329C205.611 179.527 208.282 180.911 209.275 182.802C201.283 191.77 189.713 201.32 185.951 202.692C178.084 205.559 169.556 203.618 161.893 201.055C157.805 199.686 156.795 199.423 158.031 195.152C158.992 191.832 160.584 188.6 162.342 185.64Z" fill="#F1598A"/>
<path d="M167.838 202.083C179.431 183.208 194.429 166.575 212.024 153.117C212.488 152.762 212.03 151.962 211.559 152.322C193.834 165.881 178.724 182.602 167.044 201.618C166.734 202.125 167.529 202.588 167.838 202.083Z" fill="black"/>
<path d="M168.329 183.54C170.552 186.19 171.794 189.299 172.017 192.751C172.031 192.975 172.218 193.244 172.477 193.211C178.384 192.453 184.313 192.263 190.257 192.641C190.848 192.679 190.846 191.758 190.257 191.721C184.857 191.378 179.625 191.782 174.246 192.073C173.034 192.139 173.077 192.248 172.787 191.139C172.5 190.042 172.355 188.958 171.955 187.884C171.268 186.035 170.244 184.397 168.98 182.889C168.599 182.435 167.951 183.088 168.329 183.54Z" fill="black"/>
<path d="M177.757 171.967C179.579 175.093 180.718 178.438 181.154 182.03C181.184 182.273 181.341 182.495 181.614 182.49C186.459 182.391 191.284 182.605 196.101 183.133C196.689 183.197 196.684 182.277 196.101 182.213C193.695 181.949 191.286 181.748 188.869 181.641C187.661 181.587 186.451 181.555 185.242 181.543C184.5 181.535 182.855 181.855 182.251 181.402C181.404 180.769 181.27 177.694 180.892 176.57C180.296 174.796 179.493 173.119 178.551 171.503C178.254 170.992 177.458 171.454 177.757 171.967Z" fill="black"/>
<path d="M189.878 160.871C191.08 163.588 191.828 166.393 192.14 169.347C192.171 169.636 192.41 169.881 192.723 169.791C198.125 168.222 203.603 166.992 209.158 166.103C209.741 166.009 209.493 165.123 208.913 165.215C203.358 166.105 197.88 167.334 192.478 168.903C192.672 169.051 192.866 169.199 193.06 169.347C192.73 166.224 191.942 163.276 190.673 160.406C190.434 159.866 189.641 160.333 189.878 160.871Z" fill="black"/>
<path d="M146.111 125.582C146.692 119.213 147.585 112.712 150.56 107.052C153.535 101.391 158.994 96.6575 165.372 96.1855C171.637 95.7223 178.727 99.5564 182.044 104.892C185.361 110.228 185.194 116.81 184.509 123.056C183.782 129.679 181.48 136.013 179.195 142.272C172.46 160.722 166.241 174.101 154.904 190.139C143.235 206.645 129.837 204.378 136.359 195.973C149.329 173.879 143.866 150.181 146.111 125.582Z" fill="#E4356D"/>
<path d="M140.584 203.659C147.328 193.638 151.896 182.016 155.969 170.708C161.121 156.407 165.299 141.657 167.91 126.673C169.163 119.485 170.057 112.2 170.08 104.895C170.082 104.303 169.162 104.302 169.16 104.895C169.115 118.807 166.198 132.717 162.665 146.114C158.999 160.017 154.385 173.766 148.498 186.893C145.98 192.508 143.231 198.081 139.789 203.195C139.458 203.688 140.255 204.149 140.584 203.659Z" fill="black"/>
<path d="M156.287 107.61C159.677 113.694 162.836 119.981 167.615 125.126C167.755 125.276 168 125.296 168.173 125.197C172.972 122.479 178.255 120.782 182.789 117.552C183.268 117.212 182.809 116.413 182.325 116.758C180.002 118.412 177.451 119.722 174.893 120.971C172.903 121.942 170.671 123.387 168.533 123.971C167.742 124.188 168.333 124.264 167.734 123.902C167.237 123.601 166.573 122.562 166.212 122.111C164.917 120.491 163.758 118.764 162.666 117.002C160.675 113.792 158.919 110.443 157.082 107.145C156.793 106.628 155.998 107.092 156.287 107.61Z" fill="black"/>
<path d="M149.748 126.634C154.702 130.473 158.681 135.551 163.052 140.008C163.357 140.319 163.837 141.018 164.295 141.137C165.387 141.421 167.709 139.587 168.634 139.07C172.867 136.705 176.766 133.893 180.217 130.481C180.639 130.065 179.988 129.414 179.566 129.831C176.357 133.004 172.754 135.656 168.841 137.896C167.896 138.437 165.182 140.381 164.391 140.048C163.741 139.774 162.959 138.583 162.483 138.08C158.608 133.978 154.875 129.452 150.399 125.983C149.936 125.625 149.28 126.271 149.748 126.634Z" fill="black"/>
<path d="M45.5266 196.029C39.2798 193.618 26.0903 187.982 29.8747 183.962C31.6024 182.84 33.7525 182.386 35.7861 182.714C36.8906 181.351 34.7728 179.737 33.1195 179.153C28.7081 177.593 11.7902 172.254 16.3281 167.45C17.8158 165.668 23.8832 166.237 23.5948 165.975C18.6249 161.468 15.8419 158.699 11.9526 152.72C9.48748 148.93 7.37425 141.397 11.6702 140.067C14.4251 140.006 16.6313 142.29 18.1898 144.563C19.7482 146.836 22.3256 150.934 25.1036 153.553C24.9771 151.515 23.9388 140.721 29.7831 143.185C33.436 144.724 35.0805 155.493 38.1763 159.453C38.5898 159.983 39.2596 160.557 39.847 160.231C40.2104 160.029 40.3273 159.576 40.5039 159.199C41.5647 156.941 45.2272 157.44 46.7167 159.442C48.2061 161.443 48.2544 164.121 48.5677 166.596C48.881 169.071 49.7789 171.829 52.0669 172.823C52.3944 171.392 52.7569 169.892 53.7478 168.809C54.7386 167.726 56.5754 167.268 57.6798 168.235C58.2121 168.701 58.477 169.394 58.7139 170.06C62.5807 180.937 70.4586 194.676 74.9478 204.885C74.0678 204.206 50.4114 197.915 45.5266 196.029Z" fill="#E4356D"/>
<path d="M14.1068 148.741C31.2405 170.55 53.0178 188.066 74.6231 205.212C75.0821 205.576 75.7372 204.929 75.2735 204.561C53.6682 187.416 31.8914 169.9 14.7573 148.091C14.392 147.625 13.7453 148.28 14.1068 148.741Z" fill="black"/>
<path d="M21.0676 170.494C25.8838 171.615 30.8959 172.181 35.8437 172.195C36.1178 172.196 36.3975 171.896 36.2871 171.613C34.0221 165.786 31.4939 159.64 30.5758 153.431C30.4893 152.847 29.6029 153.095 29.6884 153.675C30.6066 159.885 33.1347 166.03 35.3998 171.857C35.5474 171.663 35.6956 171.469 35.8432 171.275C30.9746 171.261 26.0503 170.71 21.3118 169.607C20.7359 169.473 20.4903 170.359 21.0676 170.494Z" fill="black"/>
<path d="M34.9649 187.127C38.0897 187.461 41.1993 187.913 44.3416 188.065C47.0836 188.198 50.2286 188.337 52.7508 187.064C52.9758 186.95 53.031 186.641 52.916 186.434C49.1384 179.641 47.2966 171.872 44.2017 164.76C43.9662 164.219 43.1732 164.687 43.4073 165.225C46.5036 172.34 48.3399 180.098 52.1215 186.898C52.1767 186.689 52.2315 186.479 52.2867 186.269C49.6067 187.622 46.0477 187.273 43.1515 187.074C40.4113 186.886 37.6946 186.499 34.9649 186.207C34.3766 186.144 34.3812 187.064 34.9649 187.127Z" fill="black"/>
<path d="M85.6437 183.98C80.5763 180.771 75.583 178.438 70.5161 175.229C63.7684 170.956 21.7005 146.874 24.8947 111.38C25.4605 105.095 29.0062 97.5945 35.121 96.0347C53.2128 91.419 53.1769 114.293 54.1295 119.231C56.3109 130.538 62.2191 140.856 69.5156 149.765C76.8122 158.673 85.5006 166.322 94.0985 173.982C95.9748 175.654 98.0154 177.729 97.7684 180.23C97.6782 181.142 97.2803 181.992 96.8884 182.821C94.6349 187.587 89.1438 186.197 85.6437 183.98Z" fill="#EF5E8C"/>
<path d="M35.8013 101.884C35.2603 108.823 36.0856 115.132 38.501 121.636C40.4666 126.929 42.8775 132.057 45.6844 136.956C52.2044 148.333 60.8257 158.445 70.8151 166.921C77.2523 172.383 84.2384 177.15 91.5813 181.308C92.0975 181.6 92.5616 180.805 92.0455 180.513C69.3054 167.637 50.1303 148.266 40.3116 123.784C39.1625 120.919 37.9904 117.96 37.3225 114.939C36.38 110.678 36.3836 106.215 36.7213 101.884C36.7673 101.293 35.8473 101.296 35.8013 101.884Z" fill="black"/>
<path d="M27.531 110.71C30.7133 113.873 33.9761 116.785 37.8226 119.123C38.0839 119.282 38.4123 119.127 38.4983 118.848C39.8659 114.436 42.0256 110.067 45.0138 106.525C45.3933 106.075 44.7456 105.421 44.3633 105.874C41.2666 109.546 39.0301 114.027 37.6114 118.604C37.8368 118.513 38.0618 118.421 38.2872 118.329C34.5106 116.033 31.3035 113.163 28.1819 110.06C27.761 109.642 27.1106 110.292 27.531 110.71Z" fill="black"/>
<path d="M29.7846 126.883C32.6385 128.27 35.4537 129.736 38.2992 131.139C39.6365 131.798 40.9741 132.463 42.3403 133.061C42.8551 133.286 43.5805 133.752 44.1656 133.683C44.3643 133.659 44.5584 133.557 44.609 133.345C45.754 128.586 46.9721 123.784 48.6971 119.198C48.9059 118.644 48.0167 118.404 47.8102 118.954C46.6542 122.027 45.7728 125.203 44.9278 128.372C44.6012 129.597 44.2848 130.825 43.9789 132.055C43.9066 132.347 43.8376 132.639 43.7636 132.929C43.7456 133 44.253 132.988 43.8275 132.682C43.1196 132.173 41.9843 131.898 41.1853 131.519C39.895 130.908 38.6157 130.273 37.3383 129.636C34.9734 128.457 32.6261 127.242 30.2492 126.087C29.7189 125.831 29.2515 126.624 29.7846 126.883Z" fill="black"/>
<path d="M36.2361 141.794C41.3407 144 46.6064 146.016 52.021 147.318C52.2611 147.376 52.521 147.244 52.5868 146.997C53.8067 142.439 54.3265 137.759 54.632 133.061C54.6706 132.47 53.7502 132.472 53.712 133.061C53.4116 137.678 52.8982 142.273 51.6995 146.752C51.8881 146.645 52.0767 146.538 52.2653 146.43C46.9302 145.148 41.7294 143.173 36.6998 140.999C36.1625 140.767 35.6938 141.559 36.2361 141.794Z" fill="black"/>
<path d="M33.8657 162.763C33.0032 157.925 32.7902 152.548 35.5916 148.509C37.9197 145.153 41.9704 143.344 46.0055 142.708C49.0843 142.223 86.1925 139.209 87.5509 140.56C88.809 141.811 92.7038 144.113 94.2637 150.596C96.1359 158.376 101.806 191.561 100.208 198.511C95.7798 199.613 53.4493 199.828 46.8634 199.886C46.5939 197.422 35.2714 170.648 33.8657 162.763Z" fill="#1E3541"/>
<path d="M105.928 130.025C116.202 132.364 120.242 153.876 121.805 159.102C123.514 164.815 125.96 170.308 129.063 175.4C130.624 177.962 132.39 181.158 130.869 183.744C129.908 185.376 127.893 186.105 126.001 186.193C122.234 186.368 118.598 184.473 115.91 181.829C113.221 179.184 111.344 175.839 109.608 172.491C104.468 162.579 101.452 155.078 99.1055 144.161C98.9763 143.563 98.0034 128.222 105.928 130.025Z" fill="#12100E"/>
<path d="M128.275 188.437C129.589 189.775 135.188 190.458 135.649 190.138C135.163 187.221 132.296 188.878 131.942 186.629C132.813 186.019 133.848 186.204 134.703 186.204C135.448 186.203 136.144 186.865 136.46 187.667C136.937 188.878 136.76 189.255 136.946 190.544C137.13 191.815 138.42 192.744 138.421 191.933C138.422 190.445 138.424 188.147 138.426 186.659C138.793 187.982 139.053 192.164 140.836 191.769C141.27 189.768 140.345 188.005 140.336 185.957C140.842 187.695 140.836 191.769 142.618 191.192C142.691 189.324 141.999 187.437 142.072 185.569C142.472 187.217 143.104 190.786 144.09 190.211C144.388 188.414 143.897 186.512 143.51 184.732C143.274 183.65 143.332 182.601 142.546 181.821C142.062 181.342 135.237 180.018 132.405 180.185C130.619 180.29 128.348 180.016 127.223 180.91C122.847 184.386 126.804 186.937 128.275 188.437Z" fill="#FFBB8E"/>
<path d="M59.3192 150.92C61.6565 162.286 69.372 163.74 70.8091 175.255C71.7682 182.938 68.5551 192.458 66.3692 199.886C84.1256 200.51 102.103 200.187 115.226 199.619C114.746 188.859 110.448 174.569 111.444 163.844C112.015 157.695 113.373 151.988 112.502 145.875C111.63 139.761 108.991 130.906 105.928 130.026C99.9749 128.315 94.9724 126.774 88.1138 126.028C85.1183 125.702 76.3259 124.787 68.7377 125.855C63.9712 126.527 59.9333 127.419 58.2226 128.113C46.9043 132.704 57.297 141.087 59.3192 150.92Z" fill="#151819"/>
<path d="M88.6786 138.604C89.8006 138.521 94.6122 129.921 94.2456 128.858C92.9543 125.901 90.5646 128.885 89.7928 126.693C89.1764 124.942 92.2165 116.97 90.5085 114.926C89.4887 113.706 79.302 109.929 77.4942 113.375C76.6418 114.999 73.4448 122.285 73.4448 124.18C73.4448 125.284 85.5373 138.835 88.6786 138.604Z" fill="#EAA27A"/>
<path d="M97.8082 180.91C98.4614 181.677 99.6349 184.295 100.364 186.508C100.606 187.241 100.952 189.572 100.952 189.572C99.105 190.463 98.4462 185.973 97.8082 184.71C97.621 186.098 97.8892 191.273 97.4025 191.229C95.6205 190.787 95.8132 186.898 95.9448 185.034C95.7833 186.272 95.4401 187.392 95.0758 188.586C94.7046 189.804 94.2658 190.949 93.6848 191.543C92.5417 191.354 93.3076 187.775 93.5141 186.178C92.8614 188.925 91.1838 191.77 91.1838 191.77C90.0301 191.77 90.1322 190.109 90.5016 189.166C90.8723 188.219 91.7859 187.066 91.2454 186.204C91.3586 187.032 89.6759 188.226 88.8709 188.45C88.0654 188.674 85.8105 187.893 85.0064 187.664C81.1663 186.571 72.2727 186.961 73.4609 182.684C74.2746 179.754 78.0153 177.331 80.7119 177.741C83.0809 178.101 86.3869 180.911 89.0581 180.911C93.838 180.91 95.8942 180.179 97.8082 180.91Z" fill="#FFBB8E"/>
<path d="M85.3299 178.688C80.5156 175.963 60.4665 167.163 60.2917 166.721C59.6219 165.027 69.1568 149.037 69.7566 144.32C70.3565 139.602 70.2658 135.472 66.8908 132.122C62.4017 127.665 58.2226 128.113 58.2226 128.113C55.1056 129.205 54.2818 130.232 52.6874 131.778C50.4288 133.967 49.1256 136.934 47.8772 139.821C44.1917 148.34 40.4891 156.912 38.3101 165.935C37.7144 168.402 37.2452 171.058 38.1542 173.428C38.765 175.022 39.9523 176.333 41.267 177.422C46.5763 181.816 53.8093 182.873 60.644 183.762C67.7312 184.685 75.0834 186.742 82.1706 187.664C83.6284 187.853 86.8567 179.553 85.3299 178.688Z" fill="#12100E"/>
<path d="M68.7068 126.373C68.7013 128.256 70.1986 130.046 70.9847 131.758C72.3146 134.654 73.6449 137.549 74.9752 140.444C76.6781 138.217 78.3806 135.988 80.0835 133.761C82.4948 136.425 85.5212 138.529 88.858 139.862C90.4413 137.815 92.0242 135.768 93.6075 133.72C94.2524 135.648 95.1076 137.506 96.1527 139.25C97.0759 134.729 97.8699 129.575 95.1011 125.885C93.7883 124.134 91.7477 122.948 89.577 122.674C88.7467 125.433 90.6189 128.284 90.5982 131.165C90.5816 133.506 89.3254 135.636 88.1082 137.635C86.5221 136.632 84.994 135.537 83.5349 134.357C82.8058 133.767 82.0703 133.125 81.6954 132.266C81.3743 131.53 81.3384 130.678 80.9134 129.997C80.4754 129.297 79.7017 128.896 79.0711 128.363C76.4776 126.171 74.8248 121.911 74.8248 119.503C72.8151 119.504 68.7169 122.76 68.7068 126.373Z" fill="#12100E"/>
<path d="M88.854 142.031C91.4061 154.003 93.7889 166.17 93.074 178.47C93.0395 179.062 93.96 179.06 93.994 178.47C94.7135 166.092 92.3091 153.833 89.7413 141.787C89.6181 141.208 88.7307 141.453 88.854 142.031Z" fill="#12100E"/>
<path d="M93.6854 106.853C93.379 108.755 93.4797 110.825 94.5373 112.435C95.5948 114.046 97.8134 114.987 99.5435 114.139C101.768 113.05 101.983 109.995 101.711 107.533C101.54 105.979 101.271 104.361 100.33 103.112C97.1892 98.9474 94.1909 103.71 93.6854 106.853Z" fill="#B8003A"/>
<path d="M78.7777 115.115C80.6977 119.035 84.4352 122.159 88.7551 122.784C90.4667 123.032 92.3164 122.863 93.7433 121.885C94.6978 121.231 95.3929 120.268 96.0106 119.29C98.7647 114.929 100.361 109.844 100.596 104.691C100.781 100.625 99.8374 96.048 96.4605 93.7752C93.8947 92.0483 90.5739 92.0792 87.4822 92.1725C85.8902 92.2208 84.2374 92.2839 82.8197 93.0107C81.3458 93.7664 80.3095 95.146 79.3329 96.485C75.7913 101.343 76.1442 109.739 78.7777 115.115Z" fill="#FFBB8E"/>
<path d="M88.337 116.775C89.6609 118.019 91.5602 118.413 93.2535 117.724C93.7944 117.504 93.558 116.614 93.0088 116.837C91.6145 117.404 90.0947 117.164 88.9874 116.124C88.5564 115.719 87.9046 116.368 88.337 116.775Z" fill="#E28E60"/>
<path d="M86.2935 98.5913C86.5543 99.095 86.563 99.688 86.7181 100.233C87.0525 101.407 88.1353 102.329 89.347 102.473C90.5586 102.616 91.8273 101.972 92.4262 100.909C92.6364 100.536 92.7795 100.106 93.107 99.8297C93.8425 99.2082 94.9948 99.7358 95.6329 100.457C96.2704 101.179 96.6784 102.309 97.6191 102.516C100.33 103.113 100.952 101.217 101.374 99.4667C101.783 100.698 104.631 100.242 105.498 99.2772C106.366 98.3117 106.228 96.7339 105.481 95.6731C104.734 94.6119 103.522 93.9794 102.306 93.5272C101.86 93.3611 101.393 93.2061 101.042 92.8855C99.7775 91.7323 100.85 89.6144 100.468 87.9465C100.04 86.0821 97.5478 85.1764 95.8693 86.0945C94.6167 86.7799 93.8168 88.1958 92.4593 88.6397C92.4193 88.3269 88.0544 86.6309 88.0038 87.7988C88.0038 87.7988 86.1403 86.5025 83.2073 87.2408C81.7809 87.6001 80.4593 88.9005 80.4492 90.3716C79.1184 90.0915 78.853 90.1168 77.5493 90.5036C76.2457 90.8905 75.0644 91.9637 74.9269 93.3165C74.8777 93.8018 74.9605 94.3 74.8473 94.7747C74.5561 96.0006 73.0464 96.4298 72.6825 97.514C72.1526 99.0923 72.8468 100.533 73.0676 102.203C73.4291 104.937 72.8633 107.321 76.3658 107.105C78.6874 106.962 80.5347 108.104 81.3186 106.2C81.6907 105.296 83.8559 93.8892 86.2935 98.5913Z" fill="#5D4037"/>
<path d="M71.6619 105.543C71.3555 107.445 71.6076 109.973 72.6647 111.584C73.7222 113.194 75.9408 114.135 77.6709 113.287C79.8954 112.198 80.1103 109.143 79.8389 106.681C79.6677 105.127 79.3991 103.509 78.4579 102.261C75.3171 98.0959 72.1674 102.401 71.6619 105.543Z" fill="#B8003A"/>
<path d="M76.7688 102.272C76.8346 98.3526 77.7334 93.9048 81.0955 91.4526C83.4636 89.7253 88.0843 88.0412 92.4589 88.6392C92.4589 88.6392 91.2611 87.5306 90.0269 87.3296C86.4495 86.7472 82.8077 87.7776 79.9055 89.913C76.0608 92.7415 74.8998 97.7403 74.8239 102.273C74.8032 103.524 76.7481 103.524 76.7688 102.272Z" fill="#B8003A"/>
<path d="M93.809 111.615C93.9217 112.502 94.3472 113.353 95.0073 114.012C95.2065 114.211 95.4425 114.431 95.4158 114.699C95.3698 115.158 94.671 115.242 94.1742 115.157C93.1641 114.986 92.1843 114.667 91.2841 114.215C91.2045 114.175 91.1244 114.134 91.0628 114.074C90.9598 113.974 90.9174 113.834 90.8949 113.698C90.7615 112.902 91.1769 112.127 91.4359 111.357C91.7275 110.489 91.6373 106.194 93.1185 106.513C94.7847 106.872 93.6834 110.628 93.809 111.615Z" fill="#E28E60"/>
<path d="M72.5451 108.6C72.5617 109.582 72.6665 110.674 73.3984 111.328C74.2361 112.078 75.7504 111.82 76.2927 110.836C76.554 110.362 76.5977 109.802 76.6313 109.261C76.7182 107.853 76.7693 106.423 76.4643 105.045C76.2095 103.895 75.5144 102.65 74.3465 102.501C72.4894 102.264 72.5262 107.504 72.5451 108.6Z" fill="#E4356D"/>
<path d="M89.8268 107.593C89.8268 108.363 89.4459 108.987 88.9758 108.987C88.5056 108.987 88.1248 108.363 88.1248 107.593C88.1248 106.823 88.5056 106.199 88.9758 106.199C89.4459 106.199 89.8268 106.824 89.8268 107.593Z" fill="#28224C"/>
<path d="M97.0129 109.364C97.4829 109.364 97.8639 108.74 97.8639 107.97C97.8639 107.2 97.4829 106.576 97.0129 106.576C96.5429 106.576 96.1619 107.2 96.1619 107.97C96.1619 108.74 96.5429 109.364 97.0129 109.364Z" fill="#28224C"/>
<path d="M86.714 104.783C87.4183 104.064 88.4013 103.857 89.3434 104.196C89.9014 104.397 90.142 103.509 89.5881 103.309C88.3512 102.864 86.9795 103.197 86.0641 104.133C85.6491 104.557 86.2991 105.208 86.714 104.783Z" fill="#28224C"/>
<path d="M96.5149 104.552C97.2214 104.621 97.8622 104.882 98.4404 105.29C98.9253 105.632 99.3857 104.834 98.9046 104.495C98.1893 103.991 97.3824 103.716 96.5149 103.632C95.9256 103.574 95.9297 104.495 96.5149 104.552Z" fill="#28224C"/>
<path d="M209.166 204.4H26.2334C24.0314 204.4 22.2466 202.615 22.2466 200.413V199.959C22.2466 197.758 24.0314 195.972 26.2334 195.972H209.166C211.368 195.972 213.153 197.757 213.153 199.959V200.413C213.153 202.615 211.368 204.4 209.166 204.4Z" fill="#3F3D56"/>
<path d="M203.57 204.4H31.8293V204.719C31.8293 207.815 34.3396 210.325 37.4358 210.325H197.964C201.06 210.325 203.57 207.815 203.57 204.719V204.4Z" fill="#1E3541"/>
<path d="M176.585 178.47H112.145C109.637 178.47 107.683 176.296 107.949 173.803L111.91 136.703C112.139 134.559 113.949 132.932 116.106 132.932H180.546C183.053 132.932 185.007 135.106 184.741 137.599L180.78 174.699C180.551 176.844 178.742 178.47 176.585 178.47Z" fill="#3F3D56"/>
<path d="M179.016 178.47H114.576C112.068 178.47 110.114 176.296 110.38 173.803L114.341 136.703C114.57 134.559 116.38 132.932 118.536 132.932H182.976C185.484 132.932 187.438 135.106 187.172 137.599L183.211 174.699C182.982 176.844 181.173 178.47 179.016 178.47Z" fill="#1E3541"/>
<path d="M149.767 159.546H145.516C143.916 159.546 142.617 160.844 142.617 162.445V193.38H152.665V162.445C152.666 160.844 151.368 159.546 149.767 159.546Z" fill="#3F3D56"/>
<path d="M163.362 193.38H130.95V195.973H163.362V193.38Z" fill="#3F3D56"/>
<path d="M135.163 193.38H97.0132V195.973H135.163V193.38Z" fill="#3F3D56"/>
<path d="M81.5033 190.139H77.896C75.446 190.139 73.4602 192.124 73.4602 194.574C73.4602 195.347 74.0863 195.973 74.8586 195.973H84.5411C85.3135 195.973 85.9395 195.347 85.9395 194.574C85.9391 192.124 83.9533 190.139 81.5033 190.139Z" fill="#E4356D"/>
<path d="M143.057 51.4376C142.676 48.9017 141.099 46.6946 140.51 44.1991C139.351 39.2941 142.161 34.2171 141.551 29.2141C140.711 22.3265 132.829 17.6 126.067 19.1581C123.256 19.8057 121.497 20.4083 118.808 19.8274C110.894 18.1189 105.079 21.8647 103.498 26.1588C99.6925 36.4941 105.461 38.1413 106.948 46.799C107.576 50.4509 101.89 56.4337 109.106 64.9552C111.539 67.8288 115.31 69.5115 119.067 70.1698C118.262 71.9817 117.131 74.0632 115.838 75.0853C115.838 75.0853 120.986 73.6556 124.131 70.6035C133.152 70.7369 145.491 67.6425 143.057 51.4376Z" fill="#3F3D56"/>
<path d="M130.33 53.4488L127.9 50.4303C127.21 49.5738 125.957 49.4381 125.1 50.1276L124.368 50.7169C123.939 51.0623 123.311 50.9947 122.965 50.5651L119.951 46.8207L119.592 46.3745L116.578 42.6301C116.233 42.2009 116.3 41.573 116.73 41.2275L117.462 40.6383C118.319 39.9487 118.454 38.6952 117.765 37.8382L115.335 34.8197C114.645 33.9627 113.392 33.8275 112.535 34.517L111.737 35.1597C109.654 36.8364 109.325 39.8839 111.001 41.9672L112.892 44.3169L116.531 48.8387L116.891 49.2853L120.53 53.8071L122.421 56.1568C124.098 58.2397 127.145 58.5691 129.229 56.8928L130.027 56.2502C130.884 55.5588 131.019 54.3053 130.33 53.4488Z" fill="white"/>
<path d="M127.508 46.5653C127.482 46.5653 127.454 46.563 127.427 46.5579C127.177 46.5138 127.011 46.2746 127.055 46.0248C127.393 44.1204 127.106 42.5872 126.201 41.4681C124.656 39.5572 121.782 39.4353 121.753 39.4344C121.499 39.4256 121.301 39.2131 121.309 38.9592C121.318 38.7053 121.553 38.5029 121.783 38.5148C121.917 38.519 125.097 38.6464 126.911 40.8838C127.995 42.2201 128.348 44.004 127.96 46.1853C127.921 46.4089 127.727 46.5653 127.508 46.5653Z" fill="white"/>
<path d="M130.402 46.4126C130.387 46.4126 130.373 46.4122 130.358 46.4108C130.105 46.3869 129.919 46.1624 129.944 45.9098C130.718 37.6952 122.82 36.6776 122.483 36.6385C122.231 36.6091 122.05 36.3809 122.079 36.1289C122.109 35.8768 122.34 35.6974 122.588 35.7245C122.68 35.7351 131.72 36.8759 130.859 45.9963C130.837 46.2341 130.636 46.4126 130.402 46.4126Z" fill="white"/>
<path d="M133.267 45.9204C133.014 45.9204 132.808 45.7166 132.807 45.4632C132.745 36.0718 123.907 34.0193 123.531 33.9365C123.283 33.8818 123.126 33.6366 123.18 33.3886C123.234 33.1407 123.481 32.9843 123.727 33.0377C123.826 33.0593 133.66 35.3206 133.726 45.4577C133.728 45.7116 133.523 45.919 133.269 45.9204C133.268 45.9204 133.267 45.9204 133.267 45.9204Z" fill="white"/>
<path d="M214.479 52.928C211.882 50.1644 207.891 49.3479 204.47 47.7103C199.467 45.3155 195.609 41.0909 192.06 36.8299C188.193 32.1889 183.323 26.2917 176.765 26.2002C169.915 26.1045 162.992 30.3301 158.663 35.3648C153.771 41.055 151.149 48.4288 150.138 55.8647C149.391 61.3631 149.52 67.1798 151.949 72.1685C152.567 73.4367 153.361 74.6359 154.291 75.7169C153.217 77.6342 151.618 79.9586 149.736 81.0083C149.736 81.0083 154.767 80.8675 157.991 78.8909C160.122 80.2056 162.548 80.9558 165.061 80.8353C169.223 80.6357 173.357 78.1889 177.346 79.3946C179.338 79.9967 180.945 81.4324 182.621 82.6666C188.962 87.3356 197.699 89.3651 204.889 86.1534C213.319 82.3878 217.534 72.4757 217.6 63.2435C217.626 59.5612 217.002 55.6121 214.479 52.928Z" fill="#3F3D56"/>
<path d="M198.982 48.8815H164.304V74.0816H198.982V48.8815Z" fill="white"/>
<path d="M167.194 51.5416C166.813 51.5416 166.504 51.233 166.504 50.8516V47.5042C166.504 47.1229 166.813 46.8142 167.194 46.8142C167.575 46.8142 167.884 47.1229 167.884 47.5042V50.8516C167.884 51.233 167.575 51.5416 167.194 51.5416Z" fill="#E4356D"/>
<path d="M171.322 51.5416C170.941 51.5416 170.632 51.233 170.632 50.8516V47.5042C170.632 47.1229 170.941 46.8142 171.322 46.8142C171.703 46.8142 172.012 47.1229 172.012 47.5042V50.8516C172.012 51.233 171.703 51.5416 171.322 51.5416Z" fill="#E4356D"/>
<path d="M175.45 51.5416C175.07 51.5416 174.76 51.233 174.76 50.8516V47.5042C174.76 47.1229 175.07 46.8142 175.45 46.8142C175.831 46.8142 176.14 47.1229 176.14 47.5042V50.8516C176.14 51.233 175.831 51.5416 175.45 51.5416Z" fill="#E4356D"/>
<path d="M179.579 51.5416C179.198 51.5416 178.889 51.233 178.889 50.8516V47.5042C178.889 47.1229 179.198 46.8142 179.579 46.8142C179.96 46.8142 180.269 47.1229 180.269 47.5042V50.8516C180.269 51.233 179.96 51.5416 179.579 51.5416Z" fill="#E4356D"/>
<path d="M183.707 51.5416C183.326 51.5416 183.017 51.233 183.017 50.8516V47.5042C183.017 47.1229 183.326 46.8142 183.707 46.8142C184.088 46.8142 184.397 47.1229 184.397 47.5042V50.8516C184.397 51.233 184.088 51.5416 183.707 51.5416Z" fill="#E4356D"/>
<path d="M187.835 51.5416C187.454 51.5416 187.145 51.233 187.145 50.8516V47.5042C187.145 47.1229 187.454 46.8142 187.835 46.8142C188.216 46.8142 188.525 47.1229 188.525 47.5042V50.8516C188.525 51.233 188.216 51.5416 187.835 51.5416Z" fill="#E4356D"/>
<path d="M191.963 51.5416C191.582 51.5416 191.273 51.233 191.273 50.8516V47.5042C191.273 47.1229 191.582 46.8142 191.963 46.8142C192.344 46.8142 192.653 47.1229 192.653 47.5042V50.8516C192.653 51.233 192.344 51.5416 191.963 51.5416Z" fill="#E4356D"/>
<path d="M196.092 51.5416C195.711 51.5416 195.402 51.233 195.402 50.8516V47.5042C195.402 47.1229 195.711 46.8142 196.092 46.8142C196.472 46.8142 196.782 47.1229 196.782 47.5042V50.8516C196.782 51.233 196.472 51.5416 196.092 51.5416Z" fill="#E4356D"/>
<path d="M177.705 54.6411H174.183V58.1638H177.705V54.6411Z" fill="#E4356D"/>
<path d="M183.228 54.6411H179.705V58.1638H183.228V54.6411Z" fill="#E4356D"/>
<path d="M188.751 54.6411H185.228V58.1638H188.751V54.6411Z" fill="#E4356D"/>
<path d="M194.274 54.6411H190.751V58.1638H194.274V54.6411Z" fill="#3F3D56"/>
<path d="M172.183 59.72H168.66V63.2426H172.183V59.72Z" fill="#3F3D56"/>
<path d="M177.705 59.72H174.183V63.2426H177.705V59.72Z" fill="#E4356D"/>
<path d="M183.228 59.72H179.705V63.2426H183.228V59.72Z" fill="#E4356D"/>
<path d="M188.751 59.72H185.228V63.2426H188.751V59.72Z" fill="#E4356D"/>
<path d="M194.274 59.72H190.751V63.2426H194.274V59.72Z" fill="#3F3D56"/>
<path d="M172.183 64.7993H168.66V68.322H172.183V64.7993Z" fill="#3F3D56"/>
<path d="M177.705 64.7993H174.183V68.322H177.705V64.7993Z" fill="#E4356D"/>
<path d="M183.228 64.7993H179.705V68.322H183.228V64.7993Z" fill="#E4356D"/>
<path d="M188.751 64.7993H185.228V68.322H188.751V64.7993Z" fill="#E4356D"/>
<path d="M38.8893 46.6619C29.6511 53.3881 18.3397 46.6146 12.264 59.6556C9.75746 65.0353 10.7511 70.2733 13.2719 76.0251C16.2016 82.7098 20.3623 85.3424 26.3782 85.6456C29.8535 85.8204 32.7717 84.3116 36.149 82.2402C38.6054 83.7402 41.9239 85.3277 44.9958 85.3433C44.9958 85.3433 42.3094 83.398 41.4524 78.988C42.7312 78.2455 44.102 77.5013 45.6011 76.7892C54.9888 72.3309 58.3394 76.3508 64.0039 69.4917C73.2664 58.2756 58.1398 32.6462 38.8893 46.6619Z" fill="#3F3D56"/>
<path d="M48.9536 52.9538L52.5577 65.762C52.7145 66.3204 52.5949 66.8849 52.2858 67.3283C52.0489 67.6604 51.7012 67.9203 51.2807 68.0385L28.1188 74.5558C27.6988 74.674 27.2678 74.6395 26.8911 74.4739C26.3975 74.2628 25.9996 73.8373 25.8423 73.2793L22.2382 60.4711C22.0813 59.9131 22.1991 59.3422 22.51 58.9048C22.7469 58.5727 23.0965 58.3187 23.5165 58.2005L46.6784 51.6832C47.0984 51.565 47.5308 51.6055 47.9048 51.7591C48.3997 51.9758 48.7967 52.3953 48.9536 52.9538Z" fill="white"/>
<path d="M41.3024 62.0176L52.2858 67.3283C52.0489 67.6605 51.7012 67.9204 51.2807 68.0386L50.1225 68.3647L40.2794 63.6079L38.8193 65.8775C38.6873 66.0767 38.4992 66.2138 38.2834 66.2745C38.0732 66.3338 37.8354 66.3163 37.6252 66.2137L35.1899 65.0398L29.2776 74.2302L26.8915 74.474L33.4939 64.2151L22.5105 58.9043C22.7474 58.5722 23.097 58.3183 23.517 58.2001L24.6753 57.8744L37.6905 64.1677L45.5202 52.009L46.6784 51.6828C47.0984 51.5646 47.5308 51.6051 47.9048 51.7587L41.3024 62.0176Z" fill="#A4ADFF"/>
<path d="M95.9007 44.1457C94.932 42.532 93.3118 41.1985 93.0657 39.3327C92.9466 38.4297 92.9521 37.4591 93.3109 36.6219C95.5442 31.4152 93.9503 25.5323 89.2928 22.0464C85.5898 19.2753 80.6066 18.6226 76.52 20.5008C70.3325 23.3445 66.7855 28.8226 69.8564 37.6077C70.7157 40.066 71.862 42.5168 71.8689 45.1214C71.874 47.1311 70.4485 52.0632 74.7044 56.5703C77.2689 59.2861 80.5059 60.4095 83.8745 60.2126C84.2866 61.4527 84.6979 63.6106 84.2388 66.7823C84.2388 66.7823 88.3406 63.3479 88.6622 59.1095C98.6722 55.66 97.3934 46.6315 95.9007 44.1457Z" fill="#3F3D56"/>
<path d="M81.1134 47.4853C80.2062 47.4853 79.4707 48.2208 79.4707 49.1275C79.4707 50.0346 80.2062 50.7702 81.1134 50.7702C82.0205 50.7702 82.7556 50.0346 82.7556 49.1275C82.756 48.2204 82.0205 47.4853 81.1134 47.4853Z" fill="white"/>
<path d="M85.5382 32.5758C84.4236 31.4598 82.9236 30.9023 81.0376 30.9023C79.245 30.9023 77.7973 31.4534 76.6947 32.556C76.1703 33.0804 75.7605 33.6591 75.4661 34.2911C74.966 35.3647 75.605 36.6753 76.669 36.8248C77.3373 36.9186 77.9859 36.512 78.2633 35.8174C78.474 35.2898 78.7477 34.8643 79.0853 34.5409C79.6465 34.0027 80.3439 33.734 81.1779 33.734C82.0427 33.734 82.7308 33.9921 83.241 34.5078C83.7516 35.0239 84.0069 35.6435 84.0069 36.3666C84.0069 36.8869 83.8624 37.3634 83.5745 37.7954C83.3873 38.0686 82.8146 38.6464 81.8559 39.5287C80.8973 40.4105 80.2583 41.2044 79.9386 41.9101C79.7993 42.2178 79.6925 42.9391 79.6166 43.6544C79.5122 44.6347 80.1953 45.4953 81.0679 45.4953C81.7869 45.4953 82.4084 44.8992 82.5091 44.0932C82.5473 43.7869 82.6043 43.5445 82.6798 43.3651C82.8472 42.9681 83.2778 42.4432 83.9715 41.7905C85.3119 40.5292 86.1868 39.5323 86.5958 38.8005C87.0047 38.0682 87.2094 37.2921 87.2094 36.472C87.2099 34.9903 86.6528 33.6917 85.5382 32.5758Z" fill="white"/>
</g>
<defs>
<clipPath id="clip0_196_476">
<rect width="230" height="230" fill="white"/>
</clipPath>
</defs>
</svg>
